<svg width="108" height="108" viewBox="0 0 108 108" fill="none" xmlns="http://www.w3.org/2000/svg">
<circle cx="54" cy="54" r="54" fill="#31A050"/>
<rect width="59.1781" height="59.1781" transform="translate(24.4109 24.4109)" fill="#31A050"/>
<path d="M62.3942 28.786C63.8624 30.0999 64.7977 31.7257 65.2115 33.6575C65.2326 33.7553 65.2538 33.853 65.2756 33.9537C65.65 36.8442 65.035 39.514 64.0556 42.2106C64.1625 42.2404 64.2693 42.2702 64.3794 42.3009C64.9362 42.513 65.1543 42.8595 65.4426 43.3664C66.0024 44.616 65.9168 46.0312 65.4426 47.2962C65.0683 47.9994 64.5421 48.4599 63.8245 48.7988C63.4777 48.8927 63.4777 48.8927 63.2466 48.9144C63.2418 49.0479 63.237 49.1814 63.2321 49.3189C62.9757 51.5839 61.4954 53.9447 59.7791 55.387C59.7028 55.387 59.6265 55.387 59.5479 55.387C59.6136 55.7461 59.6817 56.1048 59.7502 56.4634C59.7684 56.563 59.7866 56.6626 59.8053 56.7652C59.8659 57.0786 59.9365 57.388 60.0103 57.6986C60.0346 57.8054 60.0589 57.9122 60.0839 58.0222C60.2639 58.67 60.2639 58.67 60.7158 59.1401C61.0279 59.2632 61.3343 59.3492 61.6605 59.4279C61.7765 59.4606 61.8925 59.4934 62.012 59.5271C62.3814 59.6306 62.7522 59.7268 63.1238 59.8225C63.4945 59.9217 63.8646 60.0224 64.2343 60.1253C64.464 60.1887 64.6942 60.2499 64.9251 60.3086C65.5463 60.4759 65.9735 60.6227 66.3673 61.1661C66.3673 61.3187 66.3673 61.4712 66.3673 61.6284C66.464 61.6244 66.5607 61.6204 66.6603 61.6162C69.5025 61.5501 72.1004 62.6399 74.1749 64.5826C76.1982 66.5936 77.3435 69.344 77.3658 72.1924C77.366 72.2811 77.3661 72.3698 77.3662 72.4612C77.3668 72.5573 77.3674 72.6535 77.368 72.7526C77.3696 73.0675 77.3704 73.3824 77.3711 73.6973C77.3714 73.8054 77.3717 73.9135 77.3721 74.0249C77.3738 74.5958 77.3749 75.1668 77.3754 75.7378C77.376 76.327 77.3788 76.9162 77.3821 77.5054C77.3842 77.9594 77.3848 78.4134 77.385 78.8675C77.3854 79.0847 77.3863 79.302 77.3878 79.5193C77.3898 79.8227 77.3896 80.1261 77.3888 80.4296C77.3899 80.519 77.3909 80.6084 77.392 80.7005C77.388 81.2191 77.3325 81.5643 77.0009 81.9709C76.6108 82.1009 76.3167 82.1012 75.9055 82.1017C75.8287 82.1019 75.752 82.1021 75.673 82.1024C75.4141 82.103 75.1551 82.1029 74.8962 82.1027C74.7094 82.103 74.5227 82.1034 74.3359 82.1038C73.8212 82.1047 73.3065 82.1049 72.7918 82.105C72.2373 82.1052 71.6828 82.1061 71.1283 82.1068C69.9152 82.1084 68.7021 82.1091 67.4889 82.1096C66.7319 82.1099 65.9748 82.1104 65.2178 82.111C63.1229 82.1124 61.0281 82.1136 58.9332 82.1139C58.732 82.114 58.732 82.114 58.5268 82.114C58.3923 82.114 58.2579 82.1141 58.1193 82.1141C57.8469 82.1141 57.5744 82.1142 57.3019 82.1142C57.1668 82.1143 57.0316 82.1143 56.8924 82.1143C54.7014 82.1148 52.5104 82.1168 50.3194 82.1195C48.0714 82.1222 45.8235 82.1237 43.5756 82.1238C42.3128 82.1239 41.05 82.1246 39.7873 82.1267C38.7122 82.1285 37.6372 82.129 36.5622 82.1281C36.0134 82.1276 35.4646 82.1278 34.9159 82.1294C34.4138 82.1308 33.9118 82.1307 33.4097 82.1293C33.2278 82.1291 33.0458 82.1294 32.8639 82.1304C32.6171 82.1317 32.3704 82.1309 32.1236 82.1295C31.9178 82.1296 31.9178 82.1296 31.7078 82.1297C31.3049 82.0816 31.0871 81.9877 30.768 81.7397C30.6256 81.3127 30.6344 80.9171 30.6338 80.4723C30.6332 80.3785 30.6326 80.2846 30.632 80.188C30.6303 79.8766 30.6296 79.5652 30.6289 79.2538C30.6283 79.0362 30.6276 78.8185 30.6269 78.6008C30.6257 78.1432 30.625 77.6856 30.6246 77.2279C30.624 76.6467 30.6212 76.0656 30.6179 75.4844C30.6158 75.0338 30.6152 74.5832 30.615 74.1325C30.6146 73.9187 30.6137 73.7048 30.6122 73.4909C30.5915 70.3803 31.2409 67.6356 33.3108 65.2115C33.4212 65.0678 33.4212 65.0678 33.5338 64.9212C35.0862 63.0554 37.6427 61.9233 40.0146 61.6284C40.5173 61.6054 41.0145 61.6055 41.5171 61.6284C41.5267 61.5212 41.5362 61.4139 41.546 61.3034C41.6484 60.8683 41.7267 60.817 42.095 60.5882C42.3494 60.4928 42.3494 60.4928 42.6282 60.4186C42.7332 60.39 42.8381 60.3613 42.9462 60.3318C43.0586 60.3019 43.1711 60.2719 43.287 60.241C43.5257 60.1739 43.7644 60.1065 44.003 60.039C44.3784 59.9335 44.7539 59.8296 45.1308 59.7295C45.4951 59.6322 45.8574 59.529 46.2199 59.4247C46.3323 59.3964 46.4448 59.368 46.5607 59.3388C47.1699 59.1581 47.1699 59.1581 47.5839 58.6995C47.7038 58.406 47.7961 58.1212 47.8741 57.8142C47.9141 57.6695 47.954 57.5249 47.9951 57.3758C48.0354 57.1816 48.0354 57.1816 48.0764 56.9835C48.1184 56.7879 48.1184 56.7879 48.1613 56.5884C48.2246 56.172 48.2621 55.807 48.2209 55.387C48.0357 55.1419 48.0357 55.1419 47.7658 54.9608C46.0341 53.5412 45.1398 51.3921 44.6378 49.2611C44.6378 49.1467 44.6378 49.0323 44.6378 48.9144C44.5413 48.8929 44.5413 48.8929 44.4428 48.871C43.5515 48.6302 43.0269 48.1645 42.5127 47.4069C41.9879 46.3665 42.0559 44.9109 42.291 43.7936C42.5183 43.1651 42.8642 42.76 43.3664 42.3262C43.2082 41.9182 43.0323 41.5204 42.8507 41.1223C41.7039 38.5831 41.1568 35.7711 42.095 33.0796C42.5141 31.9857 43.1059 31.1185 43.9443 30.3057C44.0095 30.2395 44.0746 30.1734 44.1417 30.1052C45.2383 29.0699 46.7219 28.6425 48.1848 28.4925C48.8752 28.3944 49.1379 28.1882 49.5853 27.6735C52.8905 24.3212 59.2649 26.0857 62.3942 28.786ZM49.7934 29.9119C49.4709 30.1945 49.0373 30.1541 48.6254 30.1829C46.9519 30.3366 45.6101 30.8914 44.5056 32.1988C43.2557 33.9644 43.2082 35.8215 43.5565 37.8782C43.6814 38.5497 43.8715 39.1692 44.1755 39.7834C44.2137 39.7834 44.2518 39.7834 44.2911 39.7834C44.3151 39.6547 44.3391 39.5259 44.3638 39.3933C44.8485 36.9353 45.8618 34.6693 47.997 33.1952C48.414 32.9178 48.7673 32.9088 49.2611 32.964C49.6079 33.1844 49.6079 33.1844 49.9546 33.4842C51.6143 34.8436 53.6936 35.7388 55.8611 35.7583C56.0219 35.761 56.1828 35.7638 56.3437 35.7667C56.594 35.7707 56.8442 35.7741 57.0945 35.7757C58.72 35.7878 60.0789 36.0949 61.2961 37.2406C62.0275 38.0163 62.5184 38.9079 62.8998 39.899C63.1029 39.5307 63.2116 39.1726 63.3116 38.7648C63.3403 38.6497 63.3691 38.5345 63.3987 38.4158C63.5854 37.5506 63.618 36.7139 63.6222 35.8319C63.6246 35.7094 63.627 35.5868 63.6294 35.4606C63.6392 33.4557 62.9108 31.7426 61.5128 30.3057C59.6663 28.628 56.9173 27.592 54.4289 27.6148C52.5571 27.7566 51.0379 28.4903 49.7934 29.9119ZM48.0078 35.3705C46.5356 36.8587 45.7917 39.1254 45.7939 41.1963C45.7946 41.2919 45.7952 41.3875 45.7959 41.486C45.7966 41.5847 45.7972 41.6835 45.7978 41.7852C45.7998 41.9844 45.8032 42.1836 45.808 42.3828C45.8101 42.5208 45.8101 42.5208 45.8122 42.6617C45.8141 42.7445 45.8161 42.8273 45.8181 42.9127C45.7937 43.1353 45.7937 43.1353 45.5625 43.482C45.2429 43.5811 44.923 43.6432 44.5949 43.7087C44.2768 43.8073 44.2768 43.8073 44.0807 44.0721C43.9088 44.4938 43.8892 44.8759 43.8938 45.3241C43.8915 45.4039 43.8892 45.4837 43.8868 45.5659C43.8873 46.159 44.0323 46.4955 44.4067 46.9495C44.7804 47.1821 45.1078 47.2983 45.5336 47.4118C45.9092 47.5274 45.9092 47.5274 46.1404 47.8742C46.1975 48.1377 46.2471 48.4029 46.2921 48.6688C46.7137 50.9434 47.8134 52.9958 49.7144 54.3499C51.6042 55.561 53.7134 55.8582 55.8832 55.3834C57.908 54.8542 59.4105 53.6392 60.4943 51.8617C61.2407 50.5368 61.6882 49.0346 61.8596 47.5274C61.9433 47.5091 62.0271 47.4908 62.1133 47.4719C62.8277 47.2995 63.3253 47.1531 63.8245 46.6027C64.1405 45.9995 64.1219 45.3038 64.0556 44.6378C63.9017 44.2389 63.7771 44.0126 63.4777 43.7132C63.2188 43.6737 62.9635 43.6622 62.7021 43.6486C62.3552 43.5817 62.2144 43.515 61.9752 43.2509C61.8991 42.9212 61.8477 42.6168 61.809 42.2829C61.5534 40.4929 60.9363 38.9826 59.468 37.8618C58.9038 37.5258 58.379 37.4435 57.7293 37.4401C57.5805 37.4381 57.4316 37.4361 57.2782 37.4339C57.2006 37.4331 57.1229 37.4323 57.0428 37.4315C54.1652 37.3948 51.3768 36.8151 49.0864 34.9366C48.6463 34.6212 48.3338 35.0764 48.0078 35.3705ZM49.9546 56.4272C49.9395 56.4953 49.9245 56.5634 49.9089 56.6335C49.8386 56.9479 49.7666 57.2619 49.6946 57.5758C49.6709 57.6829 49.6472 57.7899 49.6228 57.9002C49.5009 58.4267 49.3699 58.8884 49.1185 59.3678C48.817 60.0168 48.9255 60.5912 49.03 61.2817C49.0514 61.437 49.0726 61.5924 49.0936 61.7478C49.1519 62.169 49.2146 62.5893 49.2792 63.0096C49.3195 63.2722 49.3588 63.5349 49.3979 63.7976C49.4233 63.9648 49.4487 64.1319 49.4742 64.299C49.5085 64.5246 49.5085 64.5246 49.5435 64.7547C49.572 65.0817 49.572 65.0817 49.7235 65.2115C52.5657 65.6024 55.4317 65.5109 58.2765 65.2115C58.3761 64.568 58.4748 63.9244 58.5728 63.2806C58.6063 63.0619 58.6399 62.8432 58.6737 62.6245C58.7225 62.3093 58.7705 61.9939 58.8183 61.6785C58.8335 61.5816 58.8487 61.4846 58.8643 61.3848C58.9838 60.5886 59.0723 59.9021 58.71 59.1579C58.3172 58.2784 58.1287 57.3652 57.9298 56.4272C57.8164 56.4663 57.703 56.5053 57.5862 56.5455C54.9185 57.4385 52.5895 57.3312 49.9546 56.4272ZM45.3747 61.3756C45.1552 61.4374 45.1552 61.4374 44.9313 61.5004C44.7925 61.541 44.6536 61.5816 44.5105 61.6235C44.3826 61.6604 44.2547 61.6973 44.1229 61.7354C44.0258 61.7764 43.9288 61.8174 43.8288 61.8596C43.6682 62.2131 43.6682 62.2131 43.8698 62.5706C43.9476 62.7198 44.0266 62.8685 44.1064 63.0168C44.1911 63.18 44.2758 63.3432 44.3604 63.5064C44.495 63.7626 44.6301 64.0185 44.766 64.274C44.897 64.5211 45.0255 64.7694 45.1539 65.0178C45.2151 65.1304 45.2151 65.1304 45.2776 65.2452C45.5618 65.7988 45.6197 66.2072 45.5625 66.8296C45.3431 67.1565 45.3431 67.1565 45.0568 67.4364C44.5899 67.886 44.5899 67.886 44.2911 68.4478C44.3623 68.6741 44.3623 68.6741 44.5191 68.888C44.5747 68.973 44.6302 69.0581 44.6875 69.1457C44.7498 69.2372 44.8121 69.3287 44.8762 69.423C45.0067 69.6217 45.137 69.8205 45.2672 70.0194C45.3694 70.1739 45.3694 70.1739 45.4737 70.3315C45.7995 70.8294 46.1106 71.3361 46.4221 71.843C46.5476 72.0462 46.6731 72.2494 46.7987 72.4525C46.8613 72.554 46.9239 72.6554 46.9884 72.7599C47.2499 73.1833 47.512 73.6063 47.7741 74.0293C48.387 75.0188 48.9988 76.009 49.6079 77.0009C49.7356 76.6084 49.7122 76.3118 49.6504 75.9061C49.6313 75.7776 49.6121 75.649 49.5924 75.5166C49.5706 75.3762 49.5487 75.2357 49.5262 75.091C49.5039 74.9427 49.4815 74.7944 49.4585 74.6416C49.3972 74.235 49.3348 73.8286 49.2722 73.4223C49.2068 72.9971 49.1425 72.5718 49.078 72.1464C48.9696 71.4323 48.8605 70.7182 48.7509 70.0043C48.6102 69.0876 48.4707 68.1708 48.3315 67.2539C48.2119 66.4659 48.0917 65.6779 47.9715 64.89C47.9328 64.6366 47.8942 64.3831 47.8557 64.1297C47.7838 63.6578 47.7114 63.186 47.639 62.7142C47.6176 62.5736 47.5962 62.4329 47.5742 62.2879C47.5445 62.0956 47.5445 62.0956 47.5143 61.8995C47.4886 61.7321 47.4886 61.7321 47.4625 61.5613C47.4159 61.2667 47.4159 61.2667 47.2962 60.9349C46.6377 60.9349 46.0029 61.1918 45.3747 61.3756ZM60.5882 60.9349C60.0896 63.956 59.6288 66.9828 59.1702 70.0101C59.0624 70.7215 58.9537 71.4328 58.8449 72.1441C58.7607 72.6952 58.6772 73.2464 58.5939 73.7976C58.554 74.0604 58.5139 74.3231 58.4736 74.5858C58.4178 74.949 58.363 75.3123 58.3084 75.6756C58.2916 75.7837 58.2748 75.8919 58.2575 76.0032C58.243 76.1015 58.2284 76.1997 58.2134 76.3009C58.2004 76.3864 58.1874 76.4719 58.174 76.5599C58.1426 76.7814 58.1426 76.7814 58.2765 77.0009C59.1684 75.5789 60.0566 74.1548 60.9349 72.7243C61.8132 71.2939 62.7014 69.8698 63.5933 68.4478C63.2899 67.9257 62.9397 67.5397 62.512 67.1159C62.2498 66.7211 62.281 66.4912 62.3219 66.0206C62.4352 65.6913 62.59 65.3897 62.7517 65.0819C62.7953 64.9958 62.839 64.9097 62.8839 64.821C63.0225 64.5483 63.1634 64.2767 63.3044 64.0051C63.3992 63.8195 63.4938 63.6339 63.5884 63.4482C63.8195 62.9948 64.0526 62.5425 64.2868 62.0908C63.9946 61.7985 63.7586 61.7515 63.3626 61.6348C63.2241 61.5938 63.0856 61.5528 62.9429 61.5106C62.7976 61.4684 62.6523 61.4263 62.5025 61.3828C62.3576 61.3398 62.2127 61.2967 62.0634 61.2523C61.3374 61.0209 61.3374 61.0209 60.5882 60.9349ZM39.5021 63.9789C39.4424 64.0805 39.3826 64.1821 39.3211 64.2868C39.2482 64.4099 39.1753 64.533 39.1003 64.6598C38.3447 66.0196 38.1158 67.3681 38.0497 68.9101C38.1504 68.9201 38.2511 68.9301 38.3549 68.9404C40.0532 69.1407 41.2814 69.6476 42.3944 70.9793C43.1968 72.1329 43.3939 73.551 43.2509 74.9204C43.0888 75.3482 43.0888 75.3482 42.7885 75.4983C42.5427 75.497 42.2969 75.4859 42.0517 75.4694C41.9197 75.4617 41.7877 75.4539 41.6517 75.4459C41.2691 75.3798 41.0945 75.3101 40.8236 75.036C40.7658 74.6964 40.7658 74.6964 40.8236 74.3425C41.0816 74.0133 41.2339 73.8975 41.6327 73.7646C41.5589 72.8794 41.2277 72.0881 40.5925 71.4529C39.7546 70.8785 39.0848 70.5437 38.0497 70.6438C37.2905 70.8042 36.7013 71.2144 36.2003 71.7997C35.681 72.6095 35.488 73.3888 35.6224 74.3425C35.7139 74.7007 35.8276 75.0413 35.9692 75.3827C36.1122 75.3541 36.2552 75.3255 36.4026 75.296C36.7707 75.251 36.8566 75.2439 37.1828 75.4477C37.4032 75.8058 37.4178 76.0092 37.3562 76.423C36.9257 76.9483 36.3018 77.0911 35.6513 77.167C35.1934 77.1054 35.1077 76.9995 34.8134 76.6541C34.108 75.3993 33.7901 74.1128 34.0837 72.6846C34.4835 71.2588 35.2043 70.3062 36.4315 69.488C36.4826 69.273 36.4826 69.273 36.4744 69.0248C36.4761 68.9307 36.4778 68.8365 36.4796 68.7396C36.4804 68.6385 36.4812 68.5374 36.4821 68.4333C36.5122 67.3346 36.7046 66.3808 37.0094 65.3271C37.0888 65.0194 37.1648 64.711 37.2406 64.4024C35.4967 65.0266 34.1485 66.6147 33.3108 68.2166C32.5089 69.9309 32.3515 71.5639 32.3636 73.4336C32.3639 73.6113 32.3641 73.7891 32.3643 73.9668C32.3655 74.6194 32.3687 75.2719 32.3717 75.9245C32.3764 77.3858 32.3812 78.8471 32.3861 80.3527C38.0693 80.3527 43.7525 80.3527 49.6079 80.3527C49.4409 79.9353 49.2911 79.6099 49.0611 79.2344C48.9978 79.1307 48.9345 79.0269 48.8693 78.92C48.8007 78.8088 48.7322 78.6975 48.6615 78.5829C48.5897 78.4656 48.5179 78.3483 48.4439 78.2275C47.8646 77.2837 47.2781 76.3444 46.6898 75.4061C46.0726 74.4211 45.4624 73.4317 44.8541 72.441C44.4817 71.8347 44.1086 71.2288 43.733 70.6244C43.6638 70.5129 43.5945 70.4014 43.5232 70.2866C43.3934 70.0779 43.2635 69.8693 43.1334 69.6609C43.0759 69.5684 43.0184 69.4759 42.9592 69.3806C42.9092 69.3004 42.8593 69.2203 42.8078 69.1377C42.4411 68.5187 42.4411 68.5187 42.4449 68.1182C42.5939 67.636 42.8506 67.371 43.2003 67.0175C43.2604 66.9544 43.3205 66.8914 43.3825 66.8265C43.53 66.6722 43.6792 66.5196 43.8288 66.3673C43.6347 65.6958 43.3211 65.0949 43.0052 64.4746C42.9512 64.3675 42.8971 64.2604 42.8414 64.15C42.7086 63.8872 42.5754 63.6246 42.4418 63.3622C40.8008 63.1664 40.8008 63.1664 39.5021 63.9789ZM65.4426 63.3622C64.9849 64.2776 64.5272 65.193 64.0556 66.1361C64.4077 66.6643 64.7188 67.0575 65.155 67.4974C65.4107 67.8792 65.4524 68.0996 65.4426 68.5634C65.2573 68.995 65.0057 69.3773 64.7491 69.7698C64.6757 69.886 64.6023 70.0022 64.5267 70.122C64.3718 70.3671 64.2159 70.6117 64.0591 70.8557C63.7635 71.3169 63.4738 71.7815 63.1842 72.2465C62.9691 72.5919 62.753 72.9367 62.5368 73.2815C62.0713 74.0253 61.6111 74.7723 61.1516 75.52C61.0367 75.7069 61.0367 75.7069 60.9195 75.8977C60.7677 76.1447 60.6159 76.3917 60.4641 76.6387C60.1113 77.2126 59.7576 77.7859 59.4035 78.359C59.3428 78.4573 59.2822 78.5557 59.2197 78.657C58.9752 79.0523 58.7298 79.4444 58.4662 79.8272C58.2557 80.0956 58.2557 80.0956 58.2765 80.3527C63.9979 80.3527 69.7192 80.3527 75.6139 80.3527C75.621 78.8986 75.6282 77.4444 75.6355 75.9462C75.6387 75.4902 75.6419 75.0343 75.6451 74.5646C75.6463 74.149 75.6463 74.149 75.647 73.7335C75.6475 73.5512 75.6487 73.3688 75.6505 73.1865C75.6766 70.3656 74.9527 67.966 72.9916 65.8761C72.1638 65.082 71.1208 64.3915 70.0659 63.9401C69.9515 63.9782 69.8371 64.0164 69.7192 64.0557C69.7652 64.176 69.8113 64.2964 69.8587 64.4205C70.1741 65.2657 70.4586 66.0997 70.6222 66.9886C70.6364 67.0649 70.6506 67.1412 70.6652 67.2199C70.7438 67.6783 70.7613 68.114 70.7594 68.5778C70.7655 68.879 70.7655 68.879 70.875 69.1413C71.1759 69.3719 71.4779 69.5184 71.8227 69.6749C72.4249 69.9723 72.7774 70.4548 73.0566 71.0556C73.3438 71.9466 73.3387 72.9693 72.9483 73.8224C72.4835 74.6197 71.8666 75.0907 70.9906 75.3827C70.0778 75.5772 69.2272 75.4832 68.4117 75.0071C67.7677 74.5631 67.236 73.9675 67.0608 73.1867C66.9625 72.0574 67.0126 71.134 67.7037 70.2176C68.1323 69.7446 68.6781 69.5051 69.2568 69.2569C69.0617 67.1587 68.639 65.2821 67.496 63.4845C67.1422 63.2724 66.7449 63.327 66.3456 63.3405C65.8986 63.3512 65.8986 63.3512 65.4426 63.3622ZM49.9546 66.9452C50.1777 68.7052 50.4229 70.4606 50.6892 72.2146C50.725 72.4518 50.7608 72.689 50.7966 72.9262C50.8892 73.5405 50.9822 74.1548 51.0753 74.769C51.1708 75.3998 51.266 76.0307 51.3612 76.6616C51.547 77.892 51.7332 79.1224 51.9195 80.3527C53.2545 80.3527 54.5895 80.3527 55.9649 80.3527C56.0486 79.8043 56.1324 79.2559 56.2186 78.6908C56.2731 78.3344 56.3275 77.978 56.3819 77.6216C56.4843 76.9511 56.5867 76.2807 56.689 75.6103C57.2237 72.1055 57.2237 72.1055 57.4751 70.4949C57.4919 70.3875 57.5086 70.2801 57.5258 70.1695C57.5992 69.6978 57.6731 69.2262 57.7477 68.7548C57.7727 68.5942 57.7978 68.4336 57.8228 68.2731C57.8438 68.1402 57.8647 68.0073 57.8863 67.8705C57.9255 67.5571 57.9385 67.2604 57.9298 66.9452C57.8526 66.9487 57.7753 66.9522 57.6957 66.9558C55.1039 67.0714 52.5467 67.0523 49.9546 66.9452ZM68.7945 71.5685C68.5632 72.0489 68.526 72.3626 68.6862 72.8616C68.8749 73.2868 69.0761 73.5305 69.488 73.7646C69.9706 73.8986 70.2405 73.8964 70.7233 73.7573C71.1755 73.4928 71.3484 73.3153 71.5685 72.8399C71.6678 72.3657 71.6778 71.9787 71.4204 71.5572C71.0084 71.0616 71.0084 71.0616 70.4222 70.8393C69.6776 70.7971 69.2581 70.9769 68.7945 71.5685Z" fill="white"/>
</svg>
