<svg width="108" height="108" viewBox="0 0 108 108" fill="none" xmlns="http://www.w3.org/2000/svg">
<circle cx="54" cy="54" r="54" fill="#31A050"/>
<path d="M34.9291 43.5976C35.6061 44.0038 35.9561 44.7138 36.2005 45.4469C36.2141 45.7144 36.2209 45.9823 36.2242 46.2502C36.2253 46.3314 36.2265 46.4126 36.2277 46.4963C36.2313 46.7646 36.2342 47.0329 36.237 47.3012C36.2394 47.4873 36.2418 47.6734 36.2443 47.8594C36.2507 48.3491 36.2564 48.8388 36.262 49.3284C36.2678 49.8282 36.2742 50.3279 36.2806 50.8276C36.293 51.808 36.3048 52.7884 36.316 53.7688C36.3939 53.7596 36.4718 53.7505 36.5521 53.741C36.7066 53.7239 36.7066 53.7239 36.8641 53.7065C37.0168 53.6892 37.0168 53.6892 37.1725 53.6715C38.132 53.6131 38.8863 54.0885 39.5916 54.6948C39.7864 54.8712 39.9802 55.0487 40.1731 55.2271C40.4734 55.4993 40.7823 55.7545 41.0983 56.0082C41.6245 56.4337 42.1222 56.881 42.6172 57.3416C43.0923 57.7811 43.5888 58.189 44.093 58.5948C44.4191 58.8646 44.7311 59.1457 45.0425 59.4324C45.456 59.813 45.8765 60.1775 46.3139 60.5304C46.87 60.9794 47.3994 61.4515 47.9248 61.9359C48.1805 62.1693 48.4407 62.3946 48.705 62.6181C50.0447 63.793 50.8684 65.1395 51.025 66.9444C51.0346 67.2962 51.0341 67.6462 51.0288 67.9981C51.0283 68.1244 51.0279 68.2507 51.0274 68.3808C51.0254 68.7788 51.0211 69.1767 51.0166 69.5747C51.0149 69.8468 51.0133 70.1189 51.0119 70.391C51.0081 71.0532 51.0023 71.7154 50.995 72.3776C51.13 72.4243 51.13 72.4243 51.2677 72.4719C51.6833 72.6582 51.8127 72.9127 52.0352 73.3022C52.1654 73.6929 52.1671 73.9924 52.1694 74.4043C52.17 74.4805 52.1706 74.5566 52.1712 74.6351C52.1728 74.8867 52.1736 75.1383 52.1743 75.3899C52.1749 75.5648 52.1756 75.7397 52.1763 75.9146C52.1775 76.2811 52.1782 76.6476 52.1786 77.014C52.1792 77.484 52.182 77.9538 52.1853 78.4237C52.1874 78.7849 52.188 79.146 52.1882 79.5071C52.1885 79.6804 52.1895 79.8537 52.191 80.0269C52.193 80.269 52.1927 80.5111 52.192 80.7532C52.1926 80.9599 52.1926 80.9599 52.1933 81.1708C52.1508 81.5085 52.1508 81.5085 52.0156 81.7003C51.7203 81.9167 51.5147 81.8989 51.1504 81.8993C51.0142 81.9003 50.8781 81.9013 50.7379 81.9023C50.5883 81.9016 50.4388 81.9009 50.2848 81.9002C50.1259 81.9006 49.967 81.9012 49.808 81.902C49.3763 81.9036 48.9446 81.903 48.5128 81.9019C48.0613 81.901 47.6098 81.9018 47.1583 81.9024C46.4 81.903 45.6417 81.9022 44.8835 81.9005C44.0064 81.8986 43.1293 81.8992 42.2522 81.9011C41.4996 81.9027 40.747 81.9029 39.9944 81.902C39.5447 81.9015 39.095 81.9014 38.6454 81.9026C38.2226 81.9036 37.7999 81.9029 37.3772 81.9009C37.1477 81.9002 36.9182 81.9012 36.6887 81.9023C36.5526 81.9013 36.4165 81.9003 36.2762 81.8993C36.0984 81.8991 36.0984 81.8991 35.917 81.8989C35.6225 81.8553 35.6225 81.8553 35.4111 81.7C35.1977 81.398 35.2308 81.1277 35.2291 80.7624C35.2283 80.6871 35.2275 80.6119 35.2267 80.5344C35.2246 80.2856 35.225 80.0368 35.2257 79.7879C35.2252 79.6144 35.2245 79.4409 35.2238 79.2674C35.2228 78.9033 35.2231 78.5393 35.2242 78.1752C35.2256 77.7105 35.2232 77.2459 35.2199 76.7812C35.2177 76.4226 35.2178 76.0639 35.2184 75.7052C35.2184 75.5341 35.2178 75.3629 35.2163 75.1917C35.2097 74.2687 35.2116 73.5141 35.7381 72.7243C36.1065 72.3776 36.1065 72.3776 36.4316 72.3776C36.6043 70.2273 36.6043 70.2273 35.8881 68.2993C35.6449 68.0493 35.393 67.8145 35.1284 67.5873C34.7765 67.2699 34.4822 66.9028 34.1778 66.5407C34.052 66.3952 33.9261 66.25 33.7999 66.105C33.321 65.5523 32.8434 64.9986 32.3695 64.4417C32.1557 64.1904 31.9393 63.9417 31.7203 63.6949C30.388 62.1635 29.9238 60.793 29.9254 58.7942C29.9247 58.6527 29.9239 58.5113 29.9231 58.3655C29.9213 57.9803 29.9205 57.5951 29.9204 57.2099C29.9202 56.9686 29.9197 56.7273 29.9191 56.486C29.9169 55.6423 29.916 54.7986 29.9162 53.9549C29.9163 53.1713 29.9139 52.3877 29.9102 51.6042C29.9072 50.9288 29.906 50.2534 29.9061 49.5781C29.9062 49.1758 29.9055 48.7736 29.9031 48.3714C29.9004 47.9225 29.9015 47.4736 29.9029 47.0247C29.9016 46.8932 29.9003 46.7617 29.8989 46.6263C29.9069 45.6037 30.0948 44.7372 30.7898 43.9588C31.9895 42.8859 33.5349 42.8469 34.9291 43.5976ZM31.9239 44.9846C31.3939 45.6957 31.3955 46.3133 31.4018 47.181C31.401 47.3188 31.4001 47.4567 31.3993 47.5988C31.3976 47.9752 31.398 48.3515 31.3995 48.7279C31.4007 49.1234 31.3996 49.519 31.3988 49.9145C31.398 50.5791 31.3991 51.2437 31.4013 51.9082C31.4038 52.6737 31.403 53.4391 31.4005 54.2046C31.3984 54.8642 31.3981 55.5237 31.3993 56.1833C31.4 56.5762 31.4001 56.969 31.3986 57.3619C31.3974 57.8009 31.3992 58.2397 31.4018 58.6787C31.4008 58.8069 31.3999 58.935 31.3989 59.0671C31.4128 60.352 31.7852 61.351 32.6174 62.3219C32.7189 62.4418 32.8203 62.5618 32.9217 62.6817C33.2193 63.0319 33.5195 63.3797 33.8204 63.7271C34.1118 64.0643 34.4011 64.4032 34.6907 64.7419C35.0521 65.1643 35.4148 65.5857 35.7801 66.0047C35.8455 66.0798 35.9108 66.1548 35.9781 66.2321C36.1015 66.3736 36.2251 66.515 36.349 66.6562C38.1657 68.7404 37.8253 68.6618 37.9342 72.1464C41.7484 72.1464 45.5626 72.1464 49.4924 72.1464C49.8453 67.468 49.8453 67.468 47.9104 63.9401C47.4126 63.4572 46.8884 63.0182 46.3469 62.5856C46.0169 62.3153 45.7028 62.0331 45.3892 61.744C44.9781 61.3656 44.5603 61.0035 44.1251 60.6532C43.6009 60.2304 43.1059 59.7853 42.6133 59.327C42.1382 58.8875 41.6417 58.4796 41.1375 58.0738C40.8114 57.804 40.4994 57.5229 40.188 57.2363C39.573 56.6706 38.9358 56.1371 38.2809 55.6181C38.1993 55.5533 38.1176 55.4885 38.0335 55.4217C37.725 55.2059 37.5007 55.1705 37.1251 55.1558C36.5266 55.3448 36.1296 55.5884 35.7381 56.0805C35.471 56.7076 35.4925 57.0693 35.7381 57.6986C35.969 58.0054 36.2361 58.2668 36.512 58.533C36.589 58.6094 36.666 58.6859 36.7453 58.7647C36.991 59.0079 37.2386 59.249 37.4863 59.4901C37.6502 59.6521 37.8139 59.8142 37.9775 59.9764C38.7153 60.7047 39.4608 61.4132 40.2458 62.0907C41.4517 63.1435 41.4517 63.1435 41.6021 63.6452C41.6039 63.8967 41.6039 63.8967 41.5172 64.2868C41.4017 64.4024 41.4017 64.4024 40.9752 64.4473C40.518 64.4403 40.2841 64.314 39.9554 63.9826C39.8999 63.9219 39.8443 63.8612 39.7871 63.7987C39.7265 63.7365 39.6658 63.6743 39.6034 63.6102C39.4107 63.4116 39.2214 63.2101 39.0322 63.0082C38.8429 62.8104 38.6529 62.6133 38.4628 62.4163C38.3395 62.2884 38.2165 62.1603 38.0937 62.032C37.7069 61.6292 37.3076 61.2529 36.8813 60.8917C36.4543 60.5244 36.0535 60.13 35.6514 59.7358C35.5229 59.6137 35.5229 59.6137 35.3918 59.4892C34.6426 58.7521 34.1935 57.9828 34.1155 56.9202C34.125 56.3672 34.2025 55.827 34.5271 55.3708C34.7436 54.9517 34.7474 54.5868 34.7446 54.1262C34.7458 53.9908 34.7458 53.9908 34.747 53.8526C34.7491 53.5551 34.7487 53.2577 34.748 52.9602C34.7485 52.7528 34.7491 52.5454 34.7498 52.338C34.7509 51.9036 34.7506 51.4692 34.7494 51.0348C34.7481 50.4789 34.7504 49.923 34.7538 49.3671C34.7559 48.9388 34.7559 48.5106 34.7553 48.0823C34.7552 47.8774 34.7559 47.6725 34.7574 47.4676C34.7591 47.1807 34.7579 46.8939 34.7559 46.607C34.757 46.5229 34.7581 46.4388 34.7593 46.3521C34.7508 45.7668 34.6041 45.4348 34.2356 44.9846C33.4924 44.4779 32.6637 44.4634 31.9239 44.9846ZM36.7784 73.8801C36.7784 74.8718 36.7784 75.8635 36.7784 76.8853C41.3554 76.8853 45.9325 76.8853 50.6482 76.8853C50.6482 75.8936 50.6482 74.9019 50.6482 73.8801C50.3611 73.593 50.2775 73.62 49.8818 73.6196C49.769 73.619 49.6562 73.6183 49.54 73.6176C49.3537 73.6183 49.3537 73.6183 49.1637 73.6191C49.0333 73.6186 48.9029 73.6182 48.7685 73.6178C48.3355 73.6168 47.9026 73.6175 47.4697 73.6183C47.17 73.6181 46.8703 73.6179 46.5706 73.6176C45.9417 73.6172 45.3129 73.6177 44.684 73.6188C43.9564 73.6201 43.2288 73.6197 42.5012 73.6184C41.802 73.6172 41.1028 73.6173 40.4036 73.618C40.1057 73.6182 39.8078 73.618 39.5099 73.6175C39.0942 73.6169 38.6786 73.6178 38.2629 73.6191C38.1387 73.6186 38.0145 73.6181 37.8866 73.6176C37.7738 73.6183 37.661 73.6189 37.5448 73.6196C37.4464 73.6197 37.3481 73.6198 37.2467 73.6199C36.9836 73.6274 36.9836 73.6274 36.7784 73.8801ZM36.7784 78.3878C36.7784 79.0744 36.7784 79.7609 36.7784 80.4683C41.3554 80.4683 45.9325 80.4683 50.6482 80.4683C50.6482 79.7818 50.6482 79.0952 50.6482 78.3878C46.0712 78.3878 41.4941 78.3878 36.7784 78.3878Z" fill="white"/>
<path d="M76.6285 43.5267C77.3595 44.0573 77.8118 44.6834 78.0412 45.5625C78.0902 46.0402 78.0886 46.5149 78.086 46.9948C78.087 47.2067 78.087 47.2067 78.0879 47.4229C78.0891 47.8081 78.0889 48.1933 78.0878 48.5785C78.0869 48.9834 78.0877 49.3884 78.0882 49.7933C78.0889 50.4735 78.088 51.1537 78.0864 51.8339C78.0845 52.6175 78.0851 53.401 78.087 54.1845C78.0886 54.8598 78.0888 55.535 78.0879 56.2103C78.0874 56.6125 78.0873 57.0146 78.0884 57.4168C78.0896 57.866 78.088 58.3151 78.086 58.7643C78.0868 58.8955 78.0875 59.0268 78.0882 59.162C78.0719 61.2213 77.2444 62.5918 75.9154 64.0776C75.6197 64.4104 75.3319 64.7498 75.0433 65.0887C74.6207 65.5825 74.1964 66.0747 73.769 66.5645C73.641 66.7123 73.5139 66.861 73.388 67.0106C73.1025 67.3484 72.8286 67.6485 72.4923 67.9385C71.6954 68.6741 71.6172 69.2544 71.5649 70.3183C71.5457 71.0049 71.55 71.6909 71.5686 72.3776C71.7036 72.4243 71.7036 72.4243 71.8413 72.4719C72.2569 72.6582 72.3863 72.9128 72.6088 73.3022C72.739 73.6929 72.7407 73.9924 72.743 74.4043C72.7436 74.4805 72.7442 74.5566 72.7448 74.6351C72.7465 74.8867 72.7472 75.1383 72.7479 75.3899C72.7485 75.5648 72.7492 75.7397 72.7499 75.9146C72.7511 76.2811 72.7518 76.6476 72.7522 77.0141C72.7528 77.484 72.7556 77.9539 72.7589 78.4238C72.761 78.7849 72.7616 79.146 72.7618 79.5071C72.7621 79.6804 72.7631 79.8537 72.7646 80.0269C72.7666 80.2691 72.7664 80.5111 72.7656 80.7532C72.7662 80.9599 72.7662 80.9599 72.7669 81.1708C72.7244 81.5086 72.7244 81.5086 72.5892 81.7003C72.2939 81.9167 72.0884 81.8989 71.724 81.8993C71.5878 81.9003 71.4517 81.9013 71.3115 81.9023C71.1619 81.9016 71.0124 81.9009 70.8584 81.9002C70.6995 81.9006 70.5406 81.9013 70.3816 81.902C69.9499 81.9036 69.5182 81.903 69.0864 81.9019C68.6349 81.901 68.1834 81.9018 67.7319 81.9024C66.9736 81.903 66.2153 81.9022 65.4571 81.9005C64.58 81.8986 63.7029 81.8992 62.8258 81.9011C62.0732 81.9027 61.3206 81.9029 60.568 81.902C60.1183 81.9015 59.6687 81.9014 59.219 81.9026C58.7962 81.9036 58.3735 81.9029 57.9508 81.9009C57.7213 81.9002 57.4918 81.9012 57.2623 81.9023C57.1262 81.9013 56.9901 81.9003 56.8498 81.8993C56.672 81.8991 56.672 81.8991 56.4906 81.8989C56.1961 81.8553 56.1961 81.8553 55.9847 81.7C55.7713 81.398 55.8044 81.1277 55.8027 80.7624C55.8019 80.6872 55.8011 80.6119 55.8003 80.5344C55.7982 80.2856 55.7986 80.0368 55.7993 79.7879C55.7988 79.6144 55.7981 79.4409 55.7974 79.2674C55.7964 78.9033 55.7967 78.5393 55.7978 78.1752C55.7992 77.7105 55.7968 77.2459 55.7935 76.7812C55.7913 76.4226 55.7914 76.0639 55.792 75.7052C55.7921 75.5341 55.7914 75.3629 55.7899 75.1917C55.7833 74.2687 55.7852 73.5141 56.3117 72.7243C56.6801 72.3776 56.6801 72.3776 57.0052 72.3776C57.0045 72.3082 57.0037 72.2389 57.0029 72.1675C56.9952 71.4399 56.99 70.7123 56.9862 69.9847C56.9844 69.7138 56.9821 69.443 56.9791 69.1722C56.9748 68.7808 56.9729 68.3895 56.9714 67.9981C56.9696 67.8788 56.9678 67.7596 56.9659 67.6367C56.9655 65.9066 57.4819 64.4558 58.6717 63.1969C59.5092 62.3632 60.3865 61.5961 61.307 60.8555C61.6563 60.5651 61.9896 60.2618 62.322 59.9525C62.8548 59.4567 63.4059 58.9927 63.9731 58.5361C64.2992 58.2663 64.6112 57.9853 64.9226 57.6986C65.4363 57.2258 65.9676 56.7832 66.511 56.3451C66.8437 56.0689 67.162 55.7812 67.4799 55.4881C68.6071 54.4542 69.5183 53.6625 71.1062 53.6533C71.2994 53.6894 71.4921 53.7276 71.6842 53.7688C71.6846 53.6669 71.685 53.5649 71.6854 53.4599C71.6898 52.4958 71.6964 51.5317 71.7054 50.5676C71.71 50.072 71.7137 49.5765 71.7155 49.0809C71.7172 48.602 71.7212 48.1231 71.7267 47.6443C71.7284 47.4622 71.7294 47.2801 71.7295 47.0981C71.7307 45.9562 71.7702 45.0079 72.5221 44.0888C73.7352 43.0963 75.1788 42.6899 76.6285 43.5267ZM73.4556 45.3489C73.2611 45.7665 73.2528 46.137 73.2556 46.5884C73.2544 46.7233 73.2544 46.7233 73.2532 46.8609C73.2511 47.1573 73.2515 47.4536 73.2522 47.75C73.2517 47.9568 73.2511 48.1637 73.2504 48.3706C73.2493 48.804 73.2496 49.2374 73.2508 49.6708C73.2521 50.2247 73.2498 50.7784 73.2464 51.3322C73.2442 51.7595 73.2443 52.1868 73.2449 52.614C73.245 52.8181 73.2443 53.0222 73.2428 53.2263C73.2411 53.5126 73.2423 53.7987 73.2443 54.085C73.2432 54.1683 73.2421 54.2516 73.2409 54.3375C73.2489 54.8951 73.3843 55.2808 73.6575 55.7667C73.9873 56.3768 73.9197 57.0808 73.743 57.7275C73.4255 58.7392 72.68 59.3931 71.9442 60.1186C71.8438 60.219 71.7434 60.3193 71.6399 60.4227C71.2027 60.857 70.7646 61.2838 70.2954 61.6835C69.9318 61.9954 69.601 62.3279 69.2714 62.6754C69.1257 62.828 69.1257 62.828 68.977 62.9836C68.7768 63.1943 68.5781 63.4065 68.381 63.6202C67.6582 64.3691 67.6582 64.3691 67.2451 64.4711C66.9886 64.4715 66.9886 64.4715 66.5985 64.4024C66.4613 64.0918 66.4613 64.0918 66.3674 63.7089C66.6307 63.1069 67.1414 62.674 67.6027 62.2208C67.721 62.1026 67.721 62.1026 67.8417 61.9819C68.2167 61.6102 68.596 61.2488 68.9964 60.9047C69.5967 60.3855 70.1651 59.8339 70.7303 59.2772C70.8563 59.1538 70.9829 59.0311 71.1103 58.9091C71.297 58.7302 71.4812 58.549 71.6652 58.3673C71.8289 58.208 71.8289 58.208 71.9959 58.0454C72.3545 57.5782 72.5233 57.1034 72.4684 56.5017C72.2303 55.898 71.9207 55.5624 71.3374 55.2714C70.8583 55.1117 70.5212 55.135 70.0624 55.3563C69.6647 55.6119 69.3316 55.9365 68.9874 56.2588C68.6842 56.538 68.3719 56.7977 68.0505 57.0557C67.4986 57.5021 66.9757 57.9733 66.4536 58.454C66.1456 58.7304 65.8301 58.9923 65.5077 59.2518C65.046 59.6242 64.6053 60.011 64.1713 60.4148C63.6389 60.9102 63.0882 61.3739 62.5216 61.8302C62.0775 62.1973 61.6547 62.5857 61.2312 62.9761C60.9755 63.2096 60.7153 63.4348 60.451 63.6583C59.4445 64.5408 58.7732 65.3868 58.5078 66.714C58.5078 68.5067 58.5078 70.2994 58.5078 72.1464C62.322 72.1464 66.1362 72.1464 70.066 72.1464C70.1042 70.9259 70.1423 69.7053 70.1816 68.4478C70.7811 67.715 71.3677 67.009 72.0025 66.3127C72.2692 66.0125 72.5228 65.7045 72.775 65.3921C73.1305 64.9525 73.4974 64.5294 73.8802 64.1134C75.4363 62.4172 76.5948 61.0695 76.5853 58.7031C76.5861 58.5643 76.5869 58.4255 76.5877 58.2824C76.5895 57.9046 76.5897 57.5269 76.589 57.1491C76.5886 56.8329 76.5893 56.5166 76.59 56.2004C76.5917 55.4543 76.5915 54.7082 76.5902 53.9621C76.5888 53.1937 76.5905 52.4254 76.5936 51.657C76.5961 50.9955 76.5969 50.334 76.5962 49.6724C76.5958 49.2781 76.5961 48.8838 76.5981 48.4895C76.5998 48.0501 76.5986 47.6109 76.5966 47.1715C76.5977 47.0416 76.5988 46.9118 76.6 46.7779C76.5932 46.0648 76.551 45.6443 76.0763 45.1002C75.9869 44.9965 75.9869 44.9965 75.8957 44.8907C75.5461 44.6019 75.1421 44.5989 74.7042 44.6053C74.1794 44.6747 73.7819 44.9294 73.4556 45.3489ZM57.352 73.8801C57.352 74.8718 57.352 75.8635 57.352 76.8853C61.929 76.8853 66.5061 76.8853 71.2218 76.8853C71.2218 75.8936 71.2218 74.9019 71.2218 73.8801C70.9347 73.593 70.8511 73.62 70.4554 73.6196C70.3426 73.619 70.2298 73.6183 70.1136 73.6176C69.9274 73.6183 69.9274 73.6183 69.7373 73.6191C69.6069 73.6187 69.4765 73.6183 69.3421 73.6178C68.9091 73.6168 68.4762 73.6175 68.0433 73.6183C67.7436 73.6181 67.4439 73.6179 67.1442 73.6176C66.5153 73.6173 65.8865 73.6177 65.2576 73.6188C64.53 73.6201 63.8024 73.6197 63.0748 73.6184C62.3756 73.6172 61.6764 73.6174 60.9772 73.618C60.6793 73.6182 60.3814 73.618 60.0835 73.6175C59.6678 73.6169 59.2522 73.6178 58.8365 73.6191C58.7123 73.6186 58.5881 73.6181 58.4602 73.6176C58.3474 73.6183 58.2346 73.6189 58.1184 73.6196C58.02 73.6197 57.9217 73.6198 57.8203 73.6199C57.5572 73.6274 57.5572 73.6274 57.352 73.8801ZM57.352 78.3878C57.352 79.0744 57.352 79.761 57.352 80.4683C61.929 80.4683 66.5061 80.4683 71.2218 80.4683C71.2218 79.7818 71.2218 79.0952 71.2218 78.3878C66.6448 78.3878 62.0677 78.3878 57.352 78.3878Z" fill="white"/>
<path d="M52.6708 26.1013C52.7519 26.1014 52.833 26.1015 52.9166 26.1016C56.9329 26.1181 60.4666 27.6444 63.326 30.4501C66.1026 33.2583 67.5504 36.9458 67.5376 40.8814C67.538 41.0183 67.5385 41.1553 67.5389 41.2963C67.5377 42.4142 67.5377 42.4142 67.4319 42.9736C67.3618 43.3712 67.3618 43.3712 67.6206 43.6184C67.722 43.683 67.8233 43.7477 67.9277 43.8143C69.0469 44.6153 69.7115 45.7893 69.9792 47.1301C70.2451 48.8639 69.8577 50.4361 68.8198 51.854C67.9195 52.9481 66.6167 53.7649 65.1894 53.9102C63.9333 53.9927 62.7372 53.9297 61.6208 53.2839C61.3287 53.1624 61.2277 53.1895 60.9349 53.3065C60.7039 53.4398 60.4755 53.5778 60.2487 53.7183C56.9969 55.6345 52.8787 56.234 49.2106 55.3084C45.3417 54.2247 41.9147 51.8699 39.9134 48.3292C37.9341 44.689 37.3931 40.6184 38.5192 36.6049C39.6765 32.7927 42.3004 29.6469 45.7942 27.7528C47.9794 26.6132 50.2048 26.0938 52.6708 26.1013ZM46.7183 29.0342C46.561 29.1102 46.561 29.1102 46.4005 29.1877C43.329 30.7414 41.1679 33.6087 40.0868 36.8216C39.8581 37.53 39.653 38.2351 39.5522 38.9743C39.5396 39.0644 39.5269 39.1546 39.5139 39.2475C39.0939 42.7579 40.1132 46.3002 42.2797 49.0728C44.5165 51.8495 47.5743 53.6016 51.1105 54.1156C54.381 54.2914 57.2212 53.7868 60.0103 52.0351C59.9753 51.9761 59.9403 51.9171 59.9042 51.8563C58.9729 50.2401 58.456 48.6946 58.8689 46.8267C59.3009 45.2826 60.1728 44.1288 61.5381 43.3055C61.9783 43.0724 62.4167 42.907 62.8998 42.7885C62.986 42.7671 63.0721 42.7456 63.1608 42.7235C63.5752 42.6574 63.984 42.6562 64.4024 42.6585C64.4832 42.658 64.5639 42.6576 64.6471 42.6571C65.081 42.658 65.4833 42.6847 65.905 42.7885C66.6892 40.0761 65.6833 36.7076 64.3663 34.3149C63.9165 33.5264 63.3849 32.8359 62.7843 32.155C62.7266 32.0821 62.6689 32.0092 62.6095 31.9342C60.5755 29.3756 57.1742 27.9848 54.0235 27.5926C51.4734 27.3699 48.9912 27.8615 46.7183 29.0342ZM61.0496 45.5959C60.4289 46.414 60.0362 47.3804 60.0857 48.4259C60.2967 49.7775 60.8177 50.7911 61.8754 51.6518C62.9232 52.392 63.9561 52.4727 65.2115 52.3818C66.3361 52.1191 67.2486 51.4093 67.9222 50.4869C68.5324 49.4593 68.7251 48.3431 68.4478 47.1806C67.9263 45.7674 67.1865 44.9401 65.8237 44.2848C64.0948 43.5732 62.235 44.2445 61.0496 45.5959Z" fill="white"/>
<path d="M50.6028 33.3797C50.7104 33.3782 50.818 33.3768 50.9289 33.3752C51.1028 33.3758 51.1028 33.3758 51.2803 33.3763C51.3995 33.3757 51.5188 33.3751 51.6417 33.3744C51.8939 33.3737 52.1461 33.3738 52.3983 33.3748C52.785 33.3758 53.1714 33.3725 53.558 33.3688C53.8029 33.3686 54.0478 33.3687 54.2926 33.369C54.4086 33.3677 54.5245 33.3665 54.644 33.3651C54.7516 33.3662 54.8592 33.3673 54.9701 33.3684C55.0648 33.3684 55.1595 33.3684 55.257 33.3685C55.5026 33.4264 55.5026 33.4264 55.7068 33.6353C55.9177 34.0102 55.8922 34.3754 55.8832 34.7935C55.8827 34.8801 55.8822 34.9667 55.8817 35.0558C55.8798 35.3314 55.8755 35.6069 55.871 35.8825C55.8693 36.0697 55.8677 36.2569 55.8663 36.4442C55.8625 36.9023 55.8565 37.3604 55.8494 37.8185C55.9701 37.8161 56.0908 37.8137 56.2152 37.8112C56.663 37.8028 57.1108 37.7975 57.5587 37.7931C57.7525 37.7908 57.9464 37.7876 58.1402 37.7836C58.4188 37.778 58.6973 37.7754 58.976 37.7734C59.0626 37.771 59.1493 37.7686 59.2387 37.7661C59.484 37.766 59.484 37.766 59.8947 37.8185C60.2037 38.1364 60.2851 38.3655 60.2882 38.8034C60.2904 38.9573 60.2904 38.9573 60.2926 39.1144C60.2923 39.2243 60.292 39.3342 60.2916 39.4475C60.2922 39.5612 60.2928 39.6749 60.2934 39.792C60.2942 40.0322 60.294 40.2724 60.293 40.5125C60.2921 40.8801 60.2954 41.2475 60.2991 41.6151C60.2992 41.8485 60.2992 42.082 60.2988 42.3154C60.3001 42.4253 60.3014 42.5352 60.3028 42.6485C60.298 43.0965 60.294 43.3932 60.0633 43.7833C59.6692 44.0067 59.3147 44.0021 58.8744 43.9895C58.7445 43.9885 58.7445 43.9885 58.612 43.9875C58.3364 43.985 58.0609 43.9792 57.7854 43.9733C57.5981 43.9709 57.4109 43.9688 57.2237 43.9669C56.7655 43.9619 56.3075 43.9539 55.8494 43.9444C55.853 44.1193 55.853 44.1193 55.8567 44.2978C55.8651 44.7312 55.8704 45.1645 55.8748 45.598C55.8771 45.7854 55.8802 45.9729 55.8842 46.1603C55.8899 46.43 55.8925 46.6996 55.8945 46.9694C55.8969 47.0529 55.8993 47.1365 55.9017 47.2226C55.9019 47.5861 55.8688 47.8394 55.6901 48.1583C55.2091 48.4411 54.7389 48.4001 54.191 48.3938C54.0745 48.394 53.958 48.3942 53.8379 48.3943C53.5918 48.3941 53.3457 48.3928 53.0996 48.3904C52.7224 48.3871 52.3453 48.388 51.9681 48.3895C51.729 48.3888 51.49 48.3878 51.2509 48.3866C51.0813 48.3871 51.0813 48.3871 50.9083 48.3876C50.8034 48.3862 50.6985 48.3847 50.5903 48.3832C50.4519 48.3823 50.4519 48.3823 50.3107 48.3813C50.0072 48.3247 49.9044 48.2373 49.7235 47.9897C49.6933 47.6743 49.6831 47.3859 49.6896 47.071C49.6901 46.9817 49.6906 46.8924 49.6911 46.8003C49.6931 46.5153 49.6974 46.2304 49.7018 45.9454C49.7036 45.7521 49.7052 45.5588 49.7066 45.3654C49.7104 44.8917 49.7164 44.4181 49.7235 43.9444C49.6028 43.9462 49.482 43.948 49.3577 43.9499C48.9098 43.9561 48.462 43.9601 48.0142 43.9634C47.8203 43.9652 47.6265 43.9675 47.4327 43.9705C47.1541 43.9747 46.8755 43.9767 46.5969 43.9782C46.5102 43.98 46.4235 43.9818 46.3342 43.9837C45.7325 43.9838 45.7325 43.9838 45.4819 43.8018C45.289 43.5401 45.2875 43.3885 45.2865 43.0651C45.2854 42.9575 45.2843 42.8499 45.2832 42.739C45.2839 42.623 45.2846 42.5071 45.2853 42.3876C45.285 42.2684 45.2847 42.1491 45.2843 42.0262C45.2841 41.774 45.2847 41.5218 45.2862 41.2696C45.288 40.8829 45.2862 40.4965 45.284 40.1098C45.2842 39.865 45.2846 39.6201 45.2853 39.3753C45.2846 39.2593 45.2839 39.1434 45.2832 39.0239C45.2843 38.9163 45.2854 38.8087 45.2865 38.6978C45.2868 38.6031 45.2871 38.5084 45.2874 38.4109C45.3425 38.1033 45.4271 38.0009 45.6781 37.8185C45.9936 37.7883 46.282 37.7781 46.5969 37.7846C46.6862 37.7851 46.7755 37.7856 46.8675 37.7861C47.1526 37.7881 47.4375 37.7924 47.7225 37.7968C47.9158 37.7986 48.1091 37.8002 48.3024 37.8016C48.7762 37.8054 49.2498 37.8114 49.7235 37.8185C49.7217 37.6978 49.7199 37.577 49.718 37.4527C49.7117 37.0048 49.7077 36.557 49.7045 36.1092C49.7027 35.9153 49.7003 35.7215 49.6973 35.5277C49.6931 35.2491 49.6912 34.9705 49.6896 34.6919C49.6879 34.6052 49.6861 34.5185 49.6842 34.4292C49.684 33.8275 49.684 33.8275 49.8661 33.577C50.1275 33.3842 50.2796 33.3818 50.6028 33.3797ZM51.2261 34.929C51.2216 35.3339 51.2216 35.3339 51.217 35.7471C51.2126 36.0091 51.2074 36.2711 51.2021 36.5332C51.1988 36.715 51.1964 36.8968 51.1948 37.0787C51.1923 37.3404 51.1869 37.602 51.1809 37.8637C51.1807 37.9852 51.1807 37.9852 51.1805 38.1093C51.1695 38.4768 51.1296 38.7133 50.9299 39.0249C50.5488 39.2692 50.2078 39.2752 49.7687 39.2759C49.6846 39.2778 49.6006 39.2798 49.5141 39.2817C49.2468 39.2873 48.9795 39.2898 48.7122 39.2922C48.5305 39.2954 48.3489 39.2989 48.1672 39.3026C47.7228 39.3115 47.2785 39.3162 46.834 39.3211C46.834 40.3509 46.834 41.3808 46.834 42.4418C47.2534 42.4463 47.2534 42.4463 47.6814 42.4508C47.9522 42.4553 48.2231 42.4605 48.4939 42.4658C48.6821 42.469 48.8704 42.4715 49.0586 42.4731C49.3292 42.4756 49.5997 42.481 49.8702 42.4869C49.9965 42.4872 49.9965 42.4872 50.1253 42.4874C50.4791 42.4976 50.7085 42.5131 50.9893 42.738C51.1551 43.1233 51.1659 43.4865 51.1696 43.8992C51.1717 43.9832 51.1738 44.0672 51.1759 44.1538C51.1822 44.4211 51.1861 44.6884 51.19 44.9557C51.1938 45.1374 51.1978 45.319 51.2019 45.5007C51.212 45.9451 51.219 46.3894 51.2261 46.8339C52.2559 46.8339 53.2857 46.8339 54.3468 46.8339C54.3511 46.5543 54.3554 46.2746 54.3599 45.9865C54.3652 45.7156 54.3712 45.4448 54.3771 45.174C54.381 44.9858 54.3842 44.7975 54.3868 44.6093C54.3907 44.3387 54.3968 44.0682 54.4032 43.7976C54.404 43.7135 54.4047 43.6293 54.4055 43.5426C54.4148 43.223 54.4307 42.9631 54.5836 42.6786C54.9407 42.4867 55.3067 42.5017 55.7026 42.4982C55.7894 42.4962 55.8761 42.4941 55.9655 42.4919C56.2422 42.4857 56.5189 42.4818 56.7957 42.4779C56.9834 42.4741 57.1712 42.4701 57.3589 42.466C57.8189 42.4558 58.2788 42.4489 58.7389 42.4418C58.7389 41.412 58.7389 40.3821 58.7389 39.3211C58.4593 39.3168 58.1796 39.3124 57.8915 39.308C57.6206 39.3026 57.3498 39.2967 57.079 39.2907C56.8908 39.2869 56.7025 39.2837 56.5143 39.281C56.2437 39.2772 55.9732 39.2711 55.7026 39.2646C55.6185 39.2639 55.5343 39.2632 55.4476 39.2624C55.128 39.2531 54.8681 39.2372 54.5836 39.0843C54.3917 38.7272 54.4067 38.3612 54.4032 37.9652C54.4012 37.8785 54.3991 37.7918 54.3969 37.7024C54.3907 37.4257 54.3868 37.149 54.3829 36.8722C54.3791 36.6844 54.3751 36.4967 54.3709 36.3089C54.3608 35.8489 54.3539 35.389 54.3468 34.929C53.317 34.929 52.2871 34.929 51.2261 34.929Z" fill="white"/>
<path d="M67.1765 46.1404C67.3859 46.2777 67.3859 46.2777 67.5232 46.4872C67.5874 46.8398 67.5928 47.0767 67.3891 47.3809C67.1902 47.6076 66.9826 47.8204 66.7679 48.0322C66.6514 48.15 66.6514 48.15 66.5327 48.2702C66.3682 48.4356 66.2029 48.6001 66.0368 48.7638C65.7833 49.0145 65.5341 49.2689 65.2849 49.5239C65.1245 49.6843 64.9639 49.8444 64.803 50.0043C64.6917 50.1186 64.6917 50.1186 64.5781 50.2352C64.2159 50.5864 64.024 50.7487 63.5167 50.8397C63.0647 50.7506 62.8955 50.6309 62.5717 50.3077C62.427 50.1638 62.427 50.1638 62.2793 50.0169C62.1814 49.9153 62.0834 49.8137 61.9825 49.709C61.8814 49.6101 61.7803 49.5112 61.6761 49.4092C60.945 48.6672 60.945 48.6672 60.8982 48.1997C60.935 47.8742 60.935 47.8742 61.0723 47.6647C61.3531 47.4807 61.521 47.4197 61.8597 47.4118C62.507 47.7427 62.9797 48.2779 63.4778 48.7988C64.221 48.1824 64.8897 47.5069 65.5624 46.8152C65.6463 46.73 65.7301 46.6449 65.8166 46.5572C65.8919 46.4799 65.9673 46.4026 66.0449 46.3229C66.4243 45.9883 66.7132 46.0015 67.1765 46.1404Z" fill="white"/>
</svg>
