<svg width="108" height="108" viewBox="0 0 108 108" fill="none" xmlns="http://www.w3.org/2000/svg">
<circle cx="54" cy="54" r="54" fill="#31A050"/>
<g clip-path="url(#clip0_61_58)">
<path d="M63.44 26.6438C63.8601 26.9956 64.2486 27.3733 64.6337 27.7628C64.7275 27.8555 64.8214 27.9482 64.9181 28.0437C66.8559 30.0609 67.7983 32.9724 67.7544 35.738C67.6535 38.9333 66.2601 41.5789 64.0065 43.7936C63.5534 44.1992 63.0642 44.5406 62.5532 44.869C62.698 44.908 62.8428 44.9471 62.992 44.9873C63.1829 45.0393 63.3737 45.0914 63.5645 45.1435C63.6599 45.1691 63.7552 45.1948 63.8535 45.2212C63.9459 45.2465 64.0382 45.2718 64.1334 45.2979C64.2181 45.3209 64.3029 45.3439 64.3902 45.3676C64.6337 45.4469 64.6337 45.4469 64.8787 45.5717C65.1656 45.7122 65.3524 45.6822 65.6667 45.642C65.7631 45.6305 65.8595 45.619 65.9588 45.6072C66.1527 45.5776 66.3458 45.5425 66.5376 45.5016C67.8814 45.2502 69.2554 45.4917 70.4055 46.2127C70.7383 46.4116 70.7383 46.4116 71.1063 46.4872C71.5657 46.3445 71.9388 46.1429 72.3497 45.898C73.4293 45.2645 74.7904 45.3145 75.9824 45.5842C77.5171 46.0232 78.7894 46.9166 79.635 48.2949C80.4093 49.8037 80.5905 51.4495 80.1253 53.0862C79.5342 54.7519 78.2429 55.8968 77.01 57.1027C76.6615 57.444 76.3149 57.7872 75.9679 58.13C75.5293 58.5632 75.0901 58.9957 74.6491 59.4266C74.2897 59.7779 73.932 60.1309 73.5754 60.485C73.4399 60.6189 73.3039 60.7521 73.1672 60.8847C72.9767 61.0696 72.7884 61.2567 72.6005 61.4443C72.493 61.5499 72.3855 61.6555 72.2748 61.7643C71.9869 62.1497 71.9443 62.4252 71.9153 62.8998C71.984 62.8945 72.0527 62.8891 72.1235 62.8836C73.2367 62.8351 74.102 63.1182 74.9638 63.8317C75.8156 64.6686 76.1266 65.4935 76.1413 66.6707C76.121 67.7971 75.8212 68.554 75.0495 69.3709C74.2522 70.1294 73.238 70.6847 72.3127 71.2723C72.0573 71.4352 71.8019 71.598 71.5465 71.7608C71.4152 71.8444 71.284 71.928 71.1527 72.0115C70.5202 72.4143 69.8886 72.8186 69.257 73.2228C69.1358 73.3003 69.0146 73.3778 68.8897 73.4577C68.2138 73.8903 67.5391 74.3246 66.8658 74.7615C65.8023 75.4513 64.733 76.132 63.6622 76.8103C63.3855 76.9861 63.1097 77.163 62.834 77.3404C61.1009 78.4499 59.3541 79.3303 57.2272 78.9193C56.9683 78.8576 56.7117 78.7903 56.455 78.7201C56.3121 78.6817 56.3121 78.6817 56.1663 78.6424C55.2066 78.379 54.2644 78.0678 53.3231 77.7453C53.0201 77.6415 52.7167 77.5388 52.4133 77.4364C51.5524 77.1458 50.6922 76.8534 49.8323 76.56C49.3018 76.379 48.7709 76.1994 48.2396 76.0206C48.0386 75.9527 47.8378 75.8842 47.6372 75.8152C47.3584 75.7193 47.079 75.6251 46.7995 75.5313C46.7175 75.5026 46.6355 75.4739 46.551 75.4444C45.9827 75.2564 45.622 75.2419 45.0855 75.5019C45.0062 75.5497 44.9269 75.5976 44.8452 75.6468C44.7584 75.6986 44.6716 75.7504 44.5822 75.8037C44.4933 75.8579 44.4044 75.912 44.3129 75.9678C44.2218 76.0224 44.1307 76.0771 44.0368 76.1333C43.8129 76.2676 43.5895 76.4027 43.3665 76.5385C43.5209 76.9616 43.7153 77.307 43.9661 77.6799C44.1841 78.0465 44.2899 78.2642 44.3562 78.6912C43.9039 79.6682 42.515 80.2652 41.6184 80.8151C40.85 81.2887 40.0854 81.766 39.332 82.263C39.2008 82.349 39.0696 82.4351 38.9384 82.521C38.6875 82.6859 38.4375 82.852 38.1883 83.0195C38.0743 83.0941 37.9604 83.1686 37.843 83.2455C37.7432 83.3119 37.6434 83.3783 37.5406 83.4468C37.181 83.6173 36.9409 83.6319 36.5472 83.589C36.0024 83.1654 35.6625 82.5763 35.2975 81.9998C35.2331 81.8994 35.1687 81.7991 35.1024 81.6957C34.9631 81.4782 34.824 81.2606 34.6853 81.0427C34.4624 80.6928 34.2385 80.3434 34.0143 79.9943C33.0716 78.5251 32.1343 77.0525 31.1978 75.5794C30.9295 75.1575 30.6611 74.7357 30.3926 74.3139C30.2586 74.1033 30.1248 73.8925 29.9911 73.6816C29.6397 73.1273 29.2845 72.5759 28.9237 72.0277C28.8492 71.9133 28.7746 71.799 28.6978 71.6811C28.555 71.4625 28.4112 71.2445 28.2661 71.0274C27.6191 70.0309 27.6191 70.0309 27.6474 69.3724C27.9642 68.7903 28.5259 68.4997 29.0777 68.166C29.2756 68.0438 29.4735 67.9214 29.6714 67.799C29.775 67.7353 29.8786 67.6716 29.9854 67.6059C30.4178 67.3382 30.8466 67.0647 31.2751 66.7908C31.5963 66.5857 31.9181 66.3816 32.2399 66.1777C32.6266 65.9322 33.0105 65.6832 33.3922 65.43C33.4754 65.3756 33.5587 65.3213 33.6445 65.2653C33.7968 65.1657 33.9483 65.0648 34.0986 64.9622C34.4303 64.7476 34.7162 64.6296 35.1029 64.546C35.7064 64.6768 35.9611 65.075 36.316 65.5582C36.7268 65.3163 37.1373 65.0741 37.5478 64.8316C37.6864 64.7497 37.8251 64.6679 37.9639 64.5862C38.0302 64.5472 38.0966 64.5081 38.1649 64.4679C38.232 64.4285 38.2991 64.3892 38.3683 64.3487C38.5068 64.2661 38.6442 64.1816 38.7806 64.0955C39.1622 63.8568 39.5241 63.6705 39.9488 63.5192C40.5044 63.2969 40.9591 63.0713 41.2861 62.5531C41.5862 61.4444 41.4882 60.2372 41.4464 59.0988C41.4265 58.5037 41.4214 57.9082 41.4145 57.3127C41.4108 56.9966 41.4028 56.6816 41.3922 56.3656C41.3214 53.5494 42.2817 50.9744 44.06 48.7988C44.1323 48.7075 44.2046 48.6161 44.279 48.522C45.7131 46.7981 48.0989 45.2553 50.3593 44.999C50.4928 44.9943 50.6263 44.9895 50.7638 44.9846C50.4678 44.678 50.1679 44.4131 49.8247 44.1611C47.5541 42.4042 46.1651 39.9385 45.6782 37.125C45.3388 34.18 45.9485 31.3388 47.6697 28.9002C47.9196 28.5858 48.1794 28.2886 48.4522 27.994C48.5384 27.8972 48.6247 27.8003 48.7136 27.7005C52.4602 23.7 59.1498 23.2627 63.44 26.6438ZM49.8391 29.1498C49.7605 29.2285 49.6818 29.3072 49.6008 29.3882C47.869 31.2437 47.3314 33.6529 47.3767 36.1073C47.4579 38.1732 48.3277 40.1156 49.7236 41.6327C49.8101 41.7299 49.8967 41.827 49.9859 41.9271C51.5741 43.6205 53.842 44.6483 56.1564 44.7769C57.777 44.7967 59.2325 44.538 60.7039 43.8288C60.8094 43.7803 60.9148 43.7319 61.0235 43.682C61.943 43.2262 62.6438 42.5813 63.3623 41.8639C63.4912 41.7369 63.4912 41.7369 63.6228 41.6074C65.4109 39.7318 65.9708 37.3256 65.9362 34.807C65.8696 32.7362 64.9913 30.7847 63.5934 29.2654C63.5069 29.1683 63.4203 29.0711 63.3311 28.971C61.7298 27.2637 59.4517 26.2503 57.1199 26.1262C54.2632 26.0527 51.8287 27.1602 49.8391 29.1498ZM45.526 49.774C43.7984 51.8296 43.0883 54.2276 43.1128 56.8878C43.1131 57.0243 43.1135 57.1609 43.1138 57.3016C43.1151 57.7326 43.118 58.1635 43.1209 58.5944C43.1221 58.8888 43.1231 59.1831 43.1241 59.4775C43.1266 60.1945 43.1305 60.9115 43.1354 61.6284C43.2663 61.6041 43.2663 61.6041 43.3999 61.5792C43.5144 61.5581 43.6289 61.537 43.7468 61.5153C43.8603 61.4943 43.9738 61.4733 44.0908 61.4516C46.0905 61.1076 48.0737 61.9417 49.9412 62.572C50.1479 62.6412 50.3546 62.7104 50.5614 62.7794C51.1025 62.9604 51.6434 63.1422 52.1842 63.3242C52.8297 63.5412 53.4756 63.7573 54.1214 63.9734C54.6458 64.149 55.17 64.3249 55.694 64.5016C56.6333 64.8181 57.5733 65.1316 58.5176 65.433C58.7554 65.5097 58.9931 65.5864 59.2309 65.6632C59.4445 65.7315 59.6588 65.798 59.8732 65.8644C60.8398 66.1768 61.6581 66.5792 62.257 67.4292C62.3117 67.5047 62.3664 67.5803 62.4227 67.6581C62.5532 67.8699 62.5532 67.8699 62.6688 68.2166C63.1153 68.1511 63.4092 68.026 63.7831 67.7755C63.8863 67.7071 63.9896 67.6387 64.096 67.5683C64.2067 67.4938 64.3174 67.4193 64.4314 67.3425C64.6698 67.1844 64.9084 67.0263 65.147 66.8685C65.271 66.7862 65.395 66.7039 65.5227 66.6191C66.2696 66.1272 67.0254 65.649 67.78 65.169C68.005 65.0255 68.2291 64.8805 68.4521 64.7339C68.7946 64.518 68.7946 64.518 69.1882 64.3107C69.3153 64.2395 69.4424 64.1683 69.5734 64.0949C69.6899 64.0344 69.8063 63.9739 69.9262 63.9116C70.2946 63.4526 70.3226 63.091 70.2961 62.5097C70.0533 61.6213 69.3162 61.055 68.6637 60.4424C68.5069 60.2896 68.3505 60.1364 68.1945 59.9829C67.784 59.5808 67.3695 59.1832 66.9537 58.7866C66.2898 58.152 65.6323 57.5107 64.9749 56.8694C64.7461 56.6474 64.5155 56.4274 64.2846 56.2076C62.9702 54.9455 61.9633 53.5686 61.8362 51.6875C61.8117 50.0551 62.1979 48.5431 63.3465 47.3396C63.5024 47.1853 63.5024 47.1853 63.4778 46.9495C63.283 46.8935 63.0879 46.8382 62.8927 46.7833C62.7841 46.7525 62.6755 46.7217 62.5636 46.6899C61.8649 46.5194 61.1798 46.4697 60.463 46.4685C60.3732 46.468 60.2834 46.4674 60.191 46.4668C59.896 46.4651 59.601 46.4643 59.306 46.4637C59.2044 46.4634 59.1027 46.463 58.998 46.4627C58.4594 46.461 57.9208 46.4599 57.3822 46.4594C56.8306 46.4588 56.279 46.456 55.7273 46.4527C55.2991 46.4505 54.8709 46.4499 54.4427 46.4498C54.2396 46.4494 54.0365 46.4485 53.8334 46.447C50.6044 46.4243 47.788 47.3938 45.526 49.774ZM64.6368 48.4349C63.8458 49.278 63.5137 50.1407 63.4598 51.2947C63.5492 53.2431 64.8952 54.4116 66.1936 55.6981C66.3324 55.8365 66.4712 55.9749 66.6099 56.1134C66.9721 56.4748 67.335 56.8354 67.6981 57.1959C68.0697 57.5651 68.4406 57.935 68.8116 58.3048C69.5373 59.028 70.2637 59.7506 70.9907 60.4726C71.7532 59.8442 72.4487 59.1512 73.1479 58.4544C73.2115 58.3912 73.2751 58.3279 73.3406 58.2628C73.6765 57.9285 74.0122 57.594 74.3475 57.2591C74.692 56.9153 75.0374 56.5726 75.3832 56.2302C75.6509 55.9646 75.9179 55.6982 76.1846 55.4317C76.3116 55.305 76.4388 55.1787 76.5664 55.0527C77.7143 53.9176 78.4575 52.9354 78.6697 51.2983C78.5394 50.2188 78.2187 49.2475 77.4633 48.4521C77.4026 48.3881 77.342 48.3242 77.2795 48.2584C76.5208 47.5389 75.4153 47.1244 74.366 47.1495C73.4368 47.2632 72.6641 47.5639 71.9298 48.1414C71.3849 48.5619 71.3849 48.5619 70.9184 48.6182C70.4594 48.4227 70.1308 48.1567 69.7473 47.8416C68.168 46.6311 65.9878 47.1669 64.6368 48.4349ZM40.291 65.2386C39.9067 65.4819 39.5197 65.7204 39.1315 65.9573C38.965 66.0593 38.965 66.0593 38.795 66.1633C38.5754 66.2976 38.3556 66.4315 38.1355 66.5649C38.0358 66.6261 37.9362 66.6872 37.8335 66.7502C37.7442 66.8045 37.6549 66.8589 37.5629 66.915C37.3399 67.0479 37.3399 67.0479 37.2407 67.292C37.3522 67.5251 37.3522 67.5251 37.5265 67.7814C37.5915 67.8822 37.6565 67.9831 37.7235 68.087C37.8314 68.2513 37.8314 68.2513 37.9414 68.4189C38.0922 68.652 38.243 68.8851 38.3938 69.1182C38.4715 69.2377 38.5491 69.3571 38.6291 69.4802C38.9104 69.9143 39.1874 70.351 39.464 70.7881C40.3658 72.213 41.2865 73.6255 42.2107 75.036C42.6127 74.8862 42.9615 74.7103 43.3223 74.4788C43.4705 74.3861 43.4705 74.3861 43.6216 74.2915C43.827 74.1619 44.0317 74.0312 44.2357 73.8996C44.3843 73.8073 44.3843 73.8073 44.5359 73.7131C44.6693 73.6281 44.6693 73.6281 44.8054 73.5415C45.4467 73.2725 46.0564 73.4331 46.6925 73.6453C46.7664 73.6696 46.8402 73.6939 46.9163 73.7188C47.1594 73.799 47.4019 73.8809 47.6444 73.9628C47.8169 74.02 47.9894 74.0771 48.1619 74.1341C48.6172 74.2848 49.0721 74.437 49.5268 74.5895C49.9774 74.7404 50.4283 74.8901 50.8792 75.0398C51.057 75.0989 51.2349 75.158 51.4127 75.217C51.5003 75.2461 51.5879 75.2752 51.6781 75.3052C51.9419 75.3929 52.2058 75.4807 52.4696 75.5685C53.593 75.9424 54.7177 76.3124 55.8444 76.6762C56.0445 76.7411 56.0445 76.7411 56.2485 76.8074C56.371 76.8467 56.4934 76.8861 56.6196 76.9266C56.7254 76.9607 56.8313 76.9948 56.9403 77.03C58.1486 77.3829 59.3164 77.2762 60.4542 76.7268C60.8148 76.5205 61.164 76.3018 61.5129 76.0762C61.6579 75.9833 61.8028 75.8905 61.9477 75.7976C62.2764 75.5861 62.6042 75.3732 62.9315 75.1597C63.5154 74.7794 64.1032 74.4053 64.6915 74.0318C66.5873 72.8272 68.4832 71.622 70.3654 70.396C70.7622 70.1378 71.1617 69.8842 71.5618 69.6311C71.8025 69.4775 72.0431 69.3238 72.2838 69.1702C72.3972 69.0992 72.5106 69.0282 72.6274 68.955C73.3268 68.506 73.9606 68.0559 74.3426 67.292C74.407 66.6034 74.4029 66.0261 73.9958 65.4426C73.5434 65.0099 73.145 64.664 72.5059 64.6178C71.9345 64.6373 71.5305 64.8131 71.0431 65.1054C70.9212 65.1784 70.7993 65.2514 70.6737 65.3266C70.0741 65.6955 69.4801 66.0724 68.8885 66.454C68.6992 66.5756 68.6992 66.5756 68.506 66.6998C67.9611 67.0501 67.4168 67.4013 66.8731 67.7534C66.794 67.8045 66.715 67.8556 66.6335 67.9083C66.4808 68.0075 66.3285 68.1071 66.1764 68.2073C65.7176 68.5081 65.2521 68.7919 64.7777 69.0677C64.6628 69.1362 64.548 69.2047 64.4297 69.2753C64.2065 69.4082 63.9816 69.5382 63.7547 69.6646C63.0104 70.1137 62.7189 70.5352 62.4428 71.3593C62.171 72.0904 61.645 72.568 60.9784 72.9483C58.9655 73.8409 56.7257 72.7273 54.7869 72.077C54.4296 71.9573 54.072 71.8387 53.7143 71.7202C53.4863 71.6441 53.2583 71.568 53.0303 71.4917C52.9238 71.4565 52.8172 71.4212 52.7074 71.3848C52.6089 71.3516 52.5104 71.3184 52.4089 71.2842C52.3225 71.2553 52.2361 71.2264 52.1471 71.1967C51.9196 71.1062 51.9196 71.1062 51.5729 70.875C51.4658 70.4618 51.4106 70.1874 51.5657 69.7842C51.9303 69.508 52.2927 69.5532 52.7287 69.6036C53.1888 69.7185 53.6327 69.8726 54.08 70.0294C54.2076 70.0727 54.3352 70.116 54.4667 70.1607C54.8727 70.2987 55.278 70.4387 55.6833 70.5788C56.089 70.7183 56.4949 70.8574 56.9011 70.9957C57.1532 71.0816 57.4051 71.1683 57.6567 71.2558C58.8932 71.6929 58.8932 71.6929 60.1422 71.4628C60.635 71.1751 60.9498 70.7026 61.1662 70.1815C61.2449 69.5758 61.2422 69.0649 60.9712 68.5128C60.4782 67.9666 60.0269 67.6873 59.3295 67.4527C59.2481 67.425 59.1666 67.3972 59.0827 67.3686C58.8048 67.2744 58.5263 67.182 58.2477 67.0897C58.0466 67.0221 57.8454 66.9544 57.6443 66.8866C56.9682 66.6596 56.2913 66.4353 55.6143 66.2113C55.3725 66.1313 55.1308 66.0512 54.889 65.971C53.6723 65.5677 52.4553 65.1654 51.2379 64.7641C51.0472 64.7012 50.8566 64.6383 50.6659 64.5754C50.1146 64.3935 49.5632 64.212 49.0116 64.0309C48.8418 63.9752 48.672 63.9193 48.5023 63.8633C44.9435 62.6897 43.371 63.2854 40.291 65.2386ZM33.8671 67.2486C32.9242 67.8633 31.9757 68.469 31.0253 69.0723C30.9217 69.1381 30.818 69.2039 30.7112 69.2718C30.619 69.3302 30.5268 69.3887 30.4318 69.449C30.2342 69.5754 30.0386 69.7047 29.8434 69.8348C29.9172 70.2162 30.057 70.4839 30.2674 70.8091C30.3638 70.9593 30.3638 70.9593 30.4622 71.1125C30.5671 71.2738 30.5671 71.2738 30.6742 71.4385C30.8227 71.6693 30.9713 71.9002 31.1198 72.1311C31.196 72.249 31.2722 72.367 31.3507 72.4885C31.6983 73.0279 32.0422 73.5696 32.3862 74.1113C32.5214 74.3237 32.6565 74.536 32.7917 74.7484C33.0585 75.1676 33.3251 75.5869 33.5917 76.0062C33.7244 76.215 33.8572 76.4237 33.9899 76.6324C34.0878 76.7863 34.0878 76.7863 34.1876 76.9433C34.5622 77.5319 34.9377 78.12 35.3142 78.7075C35.3772 78.8059 35.3772 78.8059 35.4415 78.9063C35.6466 79.2264 35.8517 79.5463 36.057 79.8662C36.131 79.9816 36.205 80.097 36.2813 80.2159C36.3466 80.3178 36.412 80.4196 36.4793 80.5246C36.6605 80.8115 36.8361 81.1013 37.0095 81.393C37.4314 81.3284 37.7185 81.2233 38.0723 80.9862C38.2093 80.8956 38.2093 80.8956 38.349 80.8032C38.4457 80.738 38.5425 80.6728 38.6421 80.6056C38.8476 80.4694 39.0532 80.3333 39.2589 80.1974C39.364 80.1277 39.4692 80.058 39.5775 79.9861C40.0945 79.6464 40.6178 79.3167 41.1416 78.9874C41.2373 78.9272 41.3329 78.867 41.4315 78.8049C41.6526 78.6657 41.8738 78.5267 42.0951 78.3878C42.0247 78.0523 41.9223 77.798 41.743 77.5065C41.6691 77.3859 41.6691 77.3859 41.5938 77.2628C41.5399 77.1764 41.4861 77.0899 41.4305 77.0009C41.3458 76.8636 41.3458 76.8636 41.2593 76.7235C40.7183 75.8517 40.158 74.9926 39.5966 74.1339C39.1943 73.5177 38.7983 72.8976 38.4037 72.2764C38.3369 72.1713 38.2701 72.0661 38.2012 71.9578C37.9263 71.5249 37.6516 71.0919 37.3772 70.6587C36.3481 69.0334 36.3481 69.0334 35.2975 67.422C35.2256 67.3126 35.2256 67.3126 35.1522 67.201C35.0425 67.0365 34.9285 66.8749 34.8135 66.714C34.5099 66.714 34.1244 67.0799 33.8671 67.2486Z" fill="white"/>
<path d="M71.5685 49.7235C71.8025 49.9322 71.9041 50.0944 71.9424 50.4077C71.9494 50.6717 71.9455 50.9332 71.937 51.1971C71.9346 51.3346 71.9346 51.3346 71.9322 51.4748C71.9281 51.7001 71.9219 51.9254 71.9153 52.1507C72.0504 52.144 72.1856 52.1373 72.3248 52.1304C72.5037 52.1249 72.6827 52.1197 72.8616 52.1146C72.9505 52.1097 73.0394 52.1049 73.1309 52.0999C73.6291 52.0892 73.8204 52.1045 74.2287 52.4198C74.4581 52.7286 74.4581 52.7286 74.5231 53.0826C74.4402 53.5156 74.3536 53.6267 73.9958 53.8844C73.6377 53.941 73.288 53.928 72.9266 53.9133C72.7809 53.9102 72.7809 53.9102 72.6322 53.907C72.3932 53.9016 72.1542 53.8933 71.9153 53.8844C71.9206 54.0292 71.926 54.1741 71.9315 54.3233C71.9359 54.5141 71.9401 54.7049 71.9442 54.8958C71.948 54.9911 71.9519 55.0865 71.9559 55.1847C71.9673 55.8897 71.9673 55.8897 71.7117 56.2593C71.2824 56.5379 71.0336 56.4914 70.5283 56.4272C70.2802 56.2193 70.1918 56.0538 70.1547 55.7319C70.1474 55.4524 70.1514 55.1753 70.1599 54.8958C70.1622 54.7501 70.1622 54.7501 70.1646 54.6014C70.1687 54.3624 70.1749 54.1234 70.1815 53.8844C70.1168 53.8868 70.0521 53.8893 69.9855 53.8918C69.6921 53.9014 69.3987 53.9074 69.1052 53.9133C69.0034 53.9172 68.9015 53.9211 68.7966 53.9251C68.0456 53.9365 68.0456 53.9365 67.7457 53.6767C67.5851 53.2944 67.5802 53.0225 67.6387 52.613C67.8839 52.3403 68.0787 52.1725 68.4483 52.1141C68.7121 52.1052 68.9715 52.1103 69.2352 52.1218C69.3719 52.1249 69.3719 52.1249 69.5113 52.1281C69.7348 52.1335 69.9582 52.1418 70.1815 52.1507C70.1748 52.0059 70.1681 51.861 70.1612 51.7118C70.1558 51.521 70.1505 51.3302 70.1454 51.1393C70.1406 51.044 70.1357 50.9486 70.1308 50.8504C70.1165 50.1433 70.1165 50.1433 70.4466 49.7722C70.8746 49.5474 71.1104 49.5877 71.5685 49.7235Z" fill="white"/>
</g>
<defs>
<clipPath id="clip0_61_58">
<rect width="59.1781" height="59.1781" fill="white" transform="translate(24.411 24.4109)"/>
</clipPath>
</defs>
</svg>
