<svg width="108" height="108" viewBox="0 0 108 108" fill="none" xmlns="http://www.w3.org/2000/svg">
<circle cx="54" cy="54" r="54" fill="#31A050"/>
<path d="M30.7214 40.2287C30.9234 40.2274 30.9234 40.2274 31.1295 40.2262C31.2774 40.2259 31.4252 40.2256 31.5776 40.2252C31.7348 40.2245 31.892 40.2237 32.0492 40.2229C32.5656 40.2205 33.082 40.2193 33.5984 40.2182C33.7762 40.2177 33.954 40.2172 34.1319 40.2167C34.9674 40.2145 35.8028 40.2129 36.6383 40.2119C37.6025 40.2108 38.5666 40.2077 39.5307 40.2031C40.2761 40.1996 41.0215 40.1979 41.767 40.1975C42.2121 40.1972 42.6572 40.1962 43.1023 40.1933C43.5212 40.1906 43.94 40.1901 44.3588 40.1913C44.5854 40.1914 44.8119 40.1892 45.0384 40.1869C46.2768 40.1942 46.2768 40.1942 46.8339 40.708C47.1946 41.1185 47.3096 41.4692 47.3167 42.0105C47.3189 42.1592 47.3189 42.1592 47.3212 42.311C47.322 42.4179 47.3229 42.5248 47.3237 42.635C47.3247 42.7455 47.3256 42.8559 47.3266 42.9698C47.3282 43.2037 47.3294 43.4377 47.3303 43.6716C47.3323 44.0281 47.3374 44.3844 47.3425 44.7408C47.3437 44.9683 47.3446 45.1959 47.3454 45.4234C47.3474 45.5294 47.3495 45.6354 47.3515 45.7446C47.3492 46.4392 47.2362 46.8415 46.8339 47.4118C46.3273 47.8723 45.8842 47.8867 45.2157 47.8741C45.2285 48.3172 45.2436 48.7603 45.2591 49.2033C45.2626 49.3279 45.2662 49.4524 45.2699 49.5808C45.2744 49.7029 45.2788 49.8251 45.2834 49.951C45.2871 50.0624 45.2907 50.1737 45.2945 50.2885C45.4059 51.3763 45.7111 51.8176 46.4962 52.562C46.5891 52.6531 46.6821 52.7443 46.7778 52.8382C47.0742 53.1284 47.3728 53.4162 47.6718 53.7038C47.9689 53.9912 48.2654 54.2792 48.5609 54.5682C48.7444 54.7475 48.9289 54.9259 49.1143 55.1031C50.0654 56.0288 50.7485 56.9283 50.7915 58.2984C50.7921 58.4726 50.7915 58.6468 50.7899 58.821C50.7899 58.917 50.79 59.0129 50.79 59.1118C50.7899 59.4257 50.7881 59.7397 50.7862 60.0536C50.7858 60.2725 50.7855 60.4915 50.7853 60.7104C50.7844 61.2843 50.7821 61.8581 50.7795 62.4319C50.7772 63.0185 50.7761 63.605 50.775 64.1915C50.7725 65.3406 50.7685 66.4896 50.7637 67.6387C50.8903 67.656 51.017 67.6732 51.1475 67.691C51.5163 67.7459 51.8467 67.8231 52.2012 67.9349C52.3512 67.9816 52.3512 67.9816 52.5042 68.0292C52.6153 68.0648 52.6153 68.0648 52.7286 68.101C52.7068 67.985 52.6849 67.8689 52.6625 67.7494C52.6108 67.2714 52.6519 66.9157 52.7459 66.4457C52.7618 66.3661 52.7777 66.2864 52.7941 66.2044C52.9897 65.2531 53.2399 64.3159 53.492 63.3784C53.5438 63.1841 53.5955 62.9898 53.6472 62.7954C53.7551 62.3901 53.8634 61.9848 53.9721 61.5797C54.1086 61.0709 54.2443 60.5619 54.3797 60.0529C54.6883 58.8925 55.0001 57.733 55.3155 56.5744C55.3623 56.4023 55.409 56.2301 55.4557 56.058C55.5989 55.5297 55.7444 55.0022 55.8913 54.4749C55.9429 54.2848 55.9429 54.2848 55.9957 54.0908C56.4742 52.397 57.2901 51.027 58.8472 50.128C60.3379 49.3208 61.9489 49.1007 63.5861 49.5717C65.2342 50.1563 66.4797 51.1584 67.2919 52.7286C68.2311 54.9673 67.6169 57.1009 66.9958 59.3312C66.9174 59.6192 66.8392 59.9073 66.7612 60.1954C66.5989 60.794 66.4351 61.3921 66.2703 61.9899C66.0626 62.7433 65.8594 63.4978 65.658 64.2528C65.5036 64.8314 65.3484 65.4097 65.193 65.988C65.1193 66.2624 65.0458 66.5368 64.9725 66.8114C64.2731 69.4258 64.2731 69.4258 63.7089 70.6438C63.6707 70.7582 63.6326 70.8727 63.5933 70.9906C63.6963 71.0245 63.6963 71.0245 63.8014 71.0592C65.3778 71.628 66.5562 72.6676 67.2775 74.1835C67.9301 75.6666 67.9825 77.3347 67.4364 78.8592C66.7057 80.5673 65.5251 81.6288 63.8245 82.3176C61.6979 83.0228 59.5522 82.3222 57.4819 81.7397C57.189 81.6596 56.8959 81.5797 56.6029 81.5002C56.0312 81.3446 55.46 81.1875 54.8891 81.029C53.9909 80.7798 53.0903 80.54 52.189 80.3022C51.675 80.1664 51.1616 80.0282 50.6481 79.8904C50.6333 79.9774 50.6186 80.0644 50.6034 80.1541C50.4381 80.887 49.9313 81.6168 49.3298 82.0603C48.2946 82.6196 47.3569 82.647 46.2144 82.6367C46.0156 82.6374 45.8169 82.6385 45.6181 82.6398C45.0822 82.6424 44.5464 82.6408 44.0106 82.6381C43.4477 82.6359 42.8849 82.6372 42.3221 82.638C41.3776 82.6387 40.433 82.6366 39.4885 82.6328C38.3986 82.6285 37.3087 82.6287 36.2188 82.6313C35.1672 82.6338 34.1157 82.6329 33.0641 82.6306C32.6179 82.6297 32.1717 82.6299 31.7255 82.6311C31.1997 82.6323 30.674 82.6307 30.1482 82.6268C29.956 82.6259 29.7637 82.6259 29.5715 82.627C28.2736 82.6336 27.2733 82.4984 26.2747 81.5952C25.3061 80.5184 25.3842 79.3015 25.3895 77.9316C25.3887 77.709 25.3877 77.4864 25.3865 77.2638C25.3839 76.6613 25.3842 76.0588 25.3853 75.4563C25.3859 74.9525 25.385 74.4487 25.3842 73.9449C25.3822 72.756 25.3826 71.5672 25.3845 70.3783C25.3865 69.1535 25.3847 67.9287 25.3809 66.7039C25.3778 65.6507 25.377 64.5974 25.378 63.5441C25.3786 62.9158 25.3783 62.2875 25.3759 61.6591C25.3738 61.0682 25.3745 60.4773 25.3773 59.8863C25.3779 59.67 25.3775 59.4537 25.3761 59.2375C25.3678 57.9221 25.4245 56.9761 26.2578 55.9009C26.3311 55.8303 26.4044 55.7597 26.4799 55.6869C26.564 55.6044 26.6481 55.5218 26.7347 55.4368C26.8684 55.3098 26.8684 55.3098 27.0048 55.1802C27.0978 55.0891 27.1908 54.998 27.2866 54.9041C27.5812 54.6158 27.8777 54.3294 28.1746 54.0433C28.4718 53.7564 28.7685 53.469 29.0638 53.18C29.2467 53.0011 29.4308 52.8232 29.616 52.6466C30.3564 51.9231 30.8179 51.286 30.8384 50.2219C30.8421 50.0841 30.8458 49.9462 30.8497 49.8043C30.8513 49.6632 30.8529 49.5221 30.8546 49.3767C30.8581 49.232 30.8615 49.0873 30.865 48.9383C30.8731 48.5836 30.8793 48.2289 30.8835 47.8741C30.759 47.8781 30.6344 47.8822 30.5061 47.8863C29.9265 47.8699 29.7331 47.7446 29.2654 47.4118C28.91 46.938 28.7903 46.4943 28.7844 45.9093C28.7833 45.8198 28.7822 45.7303 28.7811 45.638C28.7806 45.5422 28.7801 45.4463 28.7796 45.3476C28.7789 45.2478 28.7783 45.148 28.7776 45.0452C28.7765 44.8342 28.7757 44.6232 28.7753 44.4122C28.7742 44.0916 28.7706 43.771 28.7669 43.4504C28.7662 43.2448 28.7656 43.0392 28.7651 42.8337C28.7637 42.7387 28.7623 42.6438 28.7608 42.5461C28.7633 41.8966 28.878 41.4159 29.1498 40.8236C29.6493 40.3366 30.0386 40.2316 30.7214 40.2287ZM30.5368 41.9794C30.5368 43.3525 30.5368 44.7257 30.5368 46.1404C35.4953 46.1404 40.4537 46.1404 45.5625 46.1404C45.5625 44.7673 45.5625 43.3942 45.5625 41.9794C40.604 41.9794 35.6455 41.9794 30.5368 41.9794ZM32.6173 47.8741C32.5791 48.9421 32.541 50.0101 32.5017 51.1104C32.1814 52.3917 31.6702 53.0348 30.7382 53.9399C30.6474 54.0296 30.5567 54.1193 30.4633 54.2117C30.1756 54.4959 29.8867 54.779 29.5977 55.0619C29.3079 55.3461 29.0184 55.6306 28.7296 55.9158C28.5505 56.0927 28.3708 56.2689 28.1905 56.4445C27.6339 56.9934 27.159 57.4696 27.0693 58.2765C27.0693 58.6579 27.0693 59.0394 27.0693 59.4323C34.3163 59.4323 41.5633 59.4323 49.0299 59.4323C49.0598 57.8898 49.0598 57.8898 48.2498 56.7596C48.0706 56.5843 47.8902 56.4102 47.7089 56.2371C47.5125 56.0449 47.3161 55.8526 47.1197 55.6603C46.8109 55.3609 46.5017 55.062 46.1921 54.7634C45.8922 54.4733 45.5941 54.1814 45.2961 53.8894C45.2041 53.8018 45.1121 53.7142 45.0173 53.624C43.3105 51.9474 43.5803 50.3327 43.482 47.8741C39.8966 47.8741 36.3113 47.8741 32.6173 47.8741ZM58.6016 52.6274C57.7352 53.7312 57.4601 55.2434 57.1118 56.5726C57.0259 56.9 56.9385 57.227 56.8509 57.5539C56.7955 57.7624 56.7402 57.9709 56.685 58.1794C56.659 58.277 56.633 58.3745 56.6062 58.475C56.5826 58.5653 56.559 58.6557 56.5347 58.7488C56.5035 58.8677 56.5035 58.8677 56.4716 58.9889C56.4154 59.2216 56.4154 59.2216 56.4272 59.5479C57.4308 59.8197 58.4345 60.091 59.4383 60.3617C59.9044 60.4874 60.3705 60.6133 60.8365 60.7395C61.286 60.8613 61.7357 60.9827 62.1854 61.1037C62.3571 61.15 62.5288 61.1965 62.7004 61.2431C62.9405 61.3083 63.1807 61.3729 63.421 61.4374C63.5578 61.4744 63.6946 61.5113 63.8355 61.5494C64.17 61.6416 64.17 61.6416 64.518 61.6284C64.7347 60.8666 64.9483 60.1039 65.1599 59.3406C65.2321 59.0816 65.305 58.8228 65.3786 58.5641C65.9614 56.5131 66.4102 54.9159 65.3632 52.9381C64.6085 52.0202 63.7335 51.3492 62.5531 51.1104C60.9511 50.9652 59.7055 51.4758 58.6016 52.6274ZM27.0693 61.1661C27.0693 65.7431 27.0693 70.3202 27.0693 75.0359C32.6381 75.0359 38.2068 75.0359 43.9443 75.0359C43.9062 74.8452 43.868 74.6545 43.8287 74.458C43.7103 72.4852 44.0243 70.955 45.2834 69.3733C46.3006 68.2569 47.5867 67.908 49.0299 67.5231C49.0299 65.4253 49.0299 63.3275 49.0299 61.1661C41.7829 61.1661 34.5359 61.1661 27.0693 61.1661ZM55.9649 61.1661C55.5489 62.563 55.1409 63.9619 54.7657 65.3704C54.7368 65.4765 54.7079 65.5827 54.6781 65.6921C54.3145 67.0775 54.2226 68.2482 54.8741 69.5602C55.4546 70.5506 56.2426 71.1823 57.3157 71.5861C58.4403 71.8739 59.5754 71.8007 60.5882 71.2217C62.5873 69.9763 62.9117 67.8324 63.456 65.6955C63.5146 65.4684 63.5732 65.2414 63.6319 65.0144C63.7741 64.4639 63.9152 63.9131 64.0556 63.3621C63.1811 63.0576 62.2958 62.814 61.4008 62.577C61.2471 62.536 61.0934 62.4951 60.9397 62.4541C60.62 62.3689 60.3002 62.2839 59.9803 62.1991C59.5697 62.0902 59.1592 61.9809 58.7487 61.8715C58.4324 61.7872 58.1161 61.703 57.7998 61.6189C57.6482 61.5786 57.4967 61.5383 57.3452 61.498C57.1347 61.4419 56.9242 61.3861 56.7137 61.3303C56.534 61.2826 56.534 61.2826 56.3506 61.2339C56.1082 61.1614 56.1082 61.1614 55.9649 61.1661ZM46.251 70.8348C45.5167 71.9385 45.3265 72.9066 45.4469 74.2269C45.7347 75.3353 46.4162 76.4245 47.4118 77.0246C48.4629 77.5236 49.5818 77.8054 50.7017 78.1057C51.0554 78.2007 51.4084 78.298 51.7615 78.3955C51.9863 78.4566 52.2111 78.5175 52.436 78.5784C52.5942 78.622 52.5942 78.622 52.7556 78.6666C52.8533 78.6925 52.951 78.7184 53.0516 78.7451C53.1374 78.7683 53.2231 78.7914 53.3114 78.8153C53.5617 78.8715 53.5617 78.8715 53.8844 78.7346C53.9982 78.4837 53.9982 78.4837 54.0723 78.1697C54.1047 78.0494 54.137 77.9291 54.1704 77.8051C54.204 77.6742 54.2376 77.5434 54.2722 77.4085C54.3076 77.2753 54.3431 77.1421 54.3796 77.0048C54.4928 76.5776 54.604 76.1499 54.7151 75.7222C54.7914 75.4331 54.8678 75.1441 54.9443 74.8551C55.1319 74.1452 55.3179 73.4349 55.5025 72.7243C55.2016 72.4177 54.9102 72.1352 54.5702 71.8714C54.2542 71.5891 54.0919 71.3469 53.8944 70.9773C53.454 70.1936 52.9896 69.8467 52.1266 69.5895C49.9908 69.0606 47.7378 68.9046 46.251 70.8348ZM60.9494 72.8886C60.0871 73.3241 59.2807 73.3328 58.3343 73.3167C58.2172 73.3156 58.1001 73.3146 57.9794 73.3135C57.6932 73.3108 57.4069 73.3068 57.1207 73.3022C56.8731 74.0191 56.6574 74.7398 56.462 75.4725C56.4342 75.5757 56.4065 75.6789 56.3779 75.7851C56.32 76.001 56.2622 76.2169 56.2046 76.4329C56.116 76.7645 56.0268 77.0959 55.9376 77.4273C55.8812 77.6377 55.8248 77.8482 55.7685 78.0587C55.7417 78.1579 55.715 78.2571 55.6875 78.3593C55.5526 78.8293 55.5526 78.8293 55.5025 79.3125C56.296 79.5488 57.0907 79.7808 57.8865 80.0093C58.1375 80.0815 58.3884 80.1544 58.639 80.2279C61.159 80.9946 61.159 80.9946 63.6813 80.5053C64.7872 79.853 65.6004 79.0093 65.9659 77.753C66.1907 76.5601 66.0285 75.4698 65.4015 74.4291C64.7319 73.4813 63.9912 72.9789 62.8998 72.6087C62.8237 72.5744 62.7475 72.5402 62.6691 72.5049C61.9912 72.2427 61.5483 72.5403 60.9494 72.8886ZM27.0693 76.7697C27.0625 77.1573 27.0585 77.545 27.0549 77.9327C27.0529 78.0417 27.051 78.1507 27.049 78.263C27.0435 79.0516 27.0445 79.7106 27.5822 80.331C28.2367 80.8898 28.7262 80.9447 29.5676 80.9469C29.6805 80.9474 29.6805 80.9474 29.7957 80.9479C30.0471 80.9489 30.2984 80.9491 30.5498 80.9493C30.7304 80.9498 30.911 80.9504 31.0915 80.951C31.5816 80.9525 32.0716 80.9533 32.5617 80.9538C32.8681 80.9541 33.1746 80.9546 33.481 80.9551C34.4406 80.9567 35.4002 80.9578 36.3598 80.9582C37.466 80.9588 38.5722 80.9608 39.6784 80.9641C40.5344 80.9666 41.3905 80.9678 42.2466 80.968C42.7574 80.9681 43.2682 80.9688 43.779 80.9708C44.2598 80.9727 44.7406 80.973 45.2214 80.972C45.3973 80.9719 45.5732 80.9724 45.7491 80.9735C47.2995 81.0167 47.2995 81.0167 48.6182 80.3166C48.8085 79.9893 48.9153 79.6722 49.0299 79.3125C48.9085 79.2775 48.7871 79.2425 48.662 79.2064C47.2942 78.8026 45.7319 78.3016 44.9573 76.9901C44.766 76.7388 44.766 76.7388 44.4346 76.7128C44.2394 76.7134 44.2394 76.7134 44.0403 76.7141C43.8164 76.7131 43.8164 76.7131 43.588 76.7121C43.4222 76.7138 43.2565 76.7155 43.0907 76.7172C42.9164 76.7173 42.7421 76.7172 42.5679 76.717C42.0943 76.7168 41.6208 76.7196 41.1473 76.7228C40.6526 76.7257 40.1579 76.726 39.6632 76.7265C38.7262 76.7279 37.7892 76.7317 36.8522 76.7364C35.7856 76.7415 34.719 76.7441 33.6523 76.7464C31.458 76.7512 29.2636 76.7594 27.0693 76.7697Z" fill="white"/>
<path d="M70.0834 25.4158C70.1767 25.4148 70.27 25.4138 70.3661 25.4129C70.6738 25.4101 70.9814 25.4091 71.289 25.4083C71.5036 25.4073 71.7183 25.4062 71.9329 25.4051C72.3827 25.4032 72.8324 25.4023 73.2821 25.402C73.857 25.4014 74.4317 25.397 75.0065 25.3917C75.4498 25.3883 75.8932 25.3875 76.3365 25.3873C76.5484 25.3869 76.7602 25.3854 76.972 25.383C77.2691 25.3799 77.566 25.3805 77.8631 25.3819C77.9497 25.3802 78.0362 25.3785 78.1254 25.3767C78.9068 25.3874 79.4704 25.7189 80.0128 26.2715C80.0653 26.3465 80.1179 26.4214 80.1721 26.4986C80.2268 26.5739 80.2815 26.6491 80.3378 26.7266C80.6638 27.294 80.6371 27.9355 80.5839 28.5719C80.3883 29.213 80.0472 29.7469 79.5436 30.1901C78.8502 30.5368 78.8502 30.5368 76.5385 30.5368C76.5385 32.5965 76.5385 34.6561 76.5385 36.7782C77.8663 36.76 77.8663 36.76 79.194 36.7366C79.3623 36.7352 79.5306 36.7341 79.699 36.7331C79.8266 36.7295 79.8266 36.7295 79.9569 36.7259C80.7003 36.7254 81.2972 36.9527 81.858 37.4464C81.9353 37.5448 81.9353 37.5448 82.0142 37.6451C82.0942 37.7434 82.0942 37.7434 82.1759 37.8438C82.6706 38.5623 82.6233 39.2777 82.5488 40.1301C82.3778 40.8185 81.9778 41.199 81.4155 41.6065C80.8204 41.939 80.2919 42.0066 79.6159 41.9939C79.472 41.9918 79.328 41.9897 79.1797 41.9876C79.071 41.9849 78.9622 41.9822 78.8502 41.9794C78.8504 42.0937 78.8506 42.208 78.8508 42.3257C78.8559 45.1099 78.8597 47.8941 78.8621 50.6783C78.8633 52.0248 78.8649 53.3712 78.8676 54.7176C78.8699 55.8915 78.8714 57.0655 78.8719 58.2394C78.8722 58.8606 78.8729 59.4819 78.8746 60.1031C78.8762 60.6886 78.8766 61.2741 78.8763 61.8597C78.8764 62.0738 78.8768 62.2879 78.8777 62.5021C78.8854 64.4509 78.8208 66.3021 77.4149 67.8157C76.6095 68.5633 76.6095 68.5633 76.1918 68.5633C76.1942 68.6555 76.1966 68.7476 76.1991 68.8425C76.2087 69.2599 76.2147 69.6773 76.2207 70.0948C76.2245 70.2398 76.2284 70.3847 76.2324 70.5341C76.2346 70.7431 76.2346 70.7431 76.2369 70.9563C76.2405 71.1487 76.2405 71.1487 76.2443 71.3451C76.1918 71.6841 76.1918 71.6841 76.0156 71.9607C75.6026 72.2287 75.2929 72.1591 74.8048 72.1464C74.8059 72.3316 74.8059 72.3316 74.8071 72.5206C74.8141 73.6839 74.8193 74.8472 74.8227 76.0105C74.8246 76.6086 74.827 77.2067 74.8309 77.8047C74.8347 78.3818 74.8368 78.9588 74.8377 79.5359C74.8383 79.7562 74.8396 79.9764 74.8414 80.1967C74.844 80.505 74.8443 80.8132 74.8441 81.1215C74.8454 81.2128 74.8466 81.3041 74.8479 81.3981C74.8458 81.7678 74.8273 82.0425 74.6574 82.3743C74.3828 82.6147 74.1236 82.6047 73.7686 82.6102C73.4156 82.5181 73.2927 82.3765 73.071 82.0865C73.0278 81.7498 73.0124 81.4576 73.0186 81.1215C73.0185 81.0245 73.0184 80.9275 73.0184 80.8275C73.0187 80.5073 73.0223 80.1871 73.0259 79.8669C73.0268 79.6447 73.0274 79.4225 73.0279 79.2003C73.0296 78.6158 73.0342 78.0314 73.0393 77.4469C73.044 76.8503 73.0461 76.2538 73.0485 75.6572C73.0534 74.4869 73.0613 73.3167 73.071 72.1464C72.9244 72.1515 72.7777 72.1565 72.6266 72.1617C72.2306 72.1754 72.1789 72.1742 71.8603 71.901C71.6593 71.5218 71.6309 71.2977 71.638 70.8709C71.6371 70.6735 71.6371 70.6735 71.6362 70.472C71.6392 70.196 71.6431 69.92 71.6479 69.644C71.6454 69.2729 71.6379 68.928 71.5685 68.5633C71.2637 68.2475 71.2637 68.2475 70.875 68.101C69.9712 67.37 69.32 66.3725 69.1413 65.2115C69.1308 64.8933 69.1261 64.5781 69.1274 64.26C69.1273 64.1646 69.1272 64.0693 69.1271 63.971C69.1269 63.6517 69.1275 63.3325 69.1281 63.0132C69.1282 62.7843 69.1281 62.5553 69.1281 62.3263C69.128 61.7048 69.1287 61.0832 69.1295 60.4616C69.1303 59.8121 69.1303 59.1625 69.1305 58.5129C69.1308 57.2828 69.1318 56.0528 69.1329 54.8227C69.1342 53.4223 69.1349 52.0219 69.1354 50.6215C69.1366 47.7408 69.1387 44.8601 69.1413 41.9794C69.0312 41.9811 68.9212 41.9828 68.8079 41.9845C68.6629 41.9858 68.518 41.9871 68.3687 41.9885C68.2254 41.9901 68.082 41.9918 67.9342 41.9935C67.2569 41.9703 66.7476 41.7831 66.165 41.4521C65.5872 40.8262 65.2923 40.1608 65.262 39.3066C65.3037 38.451 65.5533 37.8881 66.1867 37.3128C66.7933 36.8089 67.3725 36.7452 68.143 36.7557C68.2648 36.756 68.2648 36.756 68.3891 36.7564C68.6904 36.7576 68.9917 36.7608 69.293 36.7638C70.3049 36.7709 70.3049 36.7709 71.3373 36.7782C71.3373 34.7186 71.3373 32.6589 71.3373 30.5368C70.6126 30.5368 69.8879 30.5368 69.1413 30.5368C68.2599 30.0961 67.8054 29.8214 67.4292 28.9331C67.1549 28.1006 67.2571 27.436 67.5999 26.6458C68.1539 25.6771 69.0211 25.4167 70.0834 25.4158ZM69.1557 27.5028C68.974 27.8662 69.0269 28.0724 69.1413 28.4563C69.3736 28.7771 69.5694 28.8471 69.9503 28.9186C70.2086 28.9299 70.4672 28.9346 70.7257 28.9354C70.8027 28.9358 70.8796 28.9362 70.9588 28.9366C71.2125 28.9377 71.4661 28.9379 71.7197 28.9381C71.8965 28.9384 72.0732 28.9388 72.25 28.9392C72.6203 28.9399 72.9905 28.9401 73.3608 28.9401C73.8347 28.9401 74.3086 28.9416 74.7825 28.9436C75.1475 28.9449 75.5125 28.9451 75.8775 28.9451C76.0522 28.9452 76.2269 28.9457 76.4016 28.9466C76.6461 28.9478 76.8906 28.9474 77.1351 28.9467C77.2741 28.9469 77.4131 28.9471 77.5563 28.9472C78.0094 28.9121 78.3399 28.8002 78.7129 28.543C78.9244 28.2314 78.9026 28.0142 78.8502 27.6472C78.5922 27.3181 78.4398 27.2023 78.0411 27.0693C77.7836 27.0578 77.5259 27.0533 77.2682 27.0525C77.1511 27.052 77.1511 27.052 77.0317 27.0514C76.7737 27.0503 76.5157 27.05 76.2577 27.0499C76.0782 27.0495 75.8987 27.0492 75.7191 27.0488C75.3427 27.0481 74.9663 27.0478 74.5899 27.0479C74.1081 27.0479 73.6263 27.0463 73.1445 27.0444C72.7737 27.0431 72.4028 27.0428 72.032 27.0429C71.8544 27.0428 71.6768 27.0423 71.4992 27.0414C71.2505 27.0402 71.0018 27.0406 70.7531 27.0413C70.6117 27.0411 70.4703 27.0409 70.3246 27.0408C69.8435 27.0775 69.5103 27.1718 69.1557 27.5028ZM73.071 30.5368C73.071 32.5965 73.071 34.6561 73.071 36.7782C73.6432 36.7782 74.2153 36.7782 74.8048 36.7782C74.8048 34.7186 74.8048 32.6589 74.8048 30.5368C74.2326 30.5368 73.6605 30.5368 73.071 30.5368ZM67.2187 38.7252C67.0031 39.0652 67.0031 39.2723 67.0608 39.6678C67.2665 40.0302 67.3524 40.1117 67.7543 40.2457C67.9246 40.2569 68.0953 40.2618 68.266 40.2627C68.3706 40.2635 68.4753 40.2644 68.5832 40.2652C68.6977 40.2655 68.8123 40.2658 68.9303 40.2662C69.1117 40.2673 69.1117 40.2673 69.2966 40.2685C69.6972 40.2707 70.0978 40.2721 70.4984 40.2732C70.7035 40.274 70.7035 40.2739 70.9126 40.2747C71.6357 40.2771 72.3588 40.2787 73.0819 40.2798C73.8296 40.2811 74.5773 40.2851 75.3249 40.2897C75.8993 40.2927 76.4735 40.2937 77.0479 40.2941C77.3235 40.2946 77.5992 40.296 77.8749 40.2981C78.2603 40.3009 78.6457 40.3008 79.0311 40.3C79.2023 40.3022 79.2023 40.3022 79.3769 40.3045C79.8728 40.3007 80.1618 40.2895 80.5974 40.0364C80.8508 39.7865 80.8508 39.7865 80.8801 39.3788C80.8435 38.983 80.8435 38.983 80.6563 38.7216C80.1763 38.3901 79.6998 38.4476 79.1299 38.4521C79.0054 38.4513 78.8809 38.4505 78.7527 38.4497C78.3409 38.4477 77.9292 38.449 77.5173 38.4506C77.2315 38.4503 76.9456 38.4498 76.6597 38.4492C76.0604 38.4485 75.4611 38.4495 74.8618 38.4517C74.093 38.4543 73.3243 38.4528 72.5554 38.45C71.9651 38.4484 71.3747 38.4489 70.7844 38.4501C70.5009 38.4504 70.2173 38.45 69.9338 38.449C69.5378 38.4478 69.142 38.4496 68.746 38.4521C68.5696 38.4507 68.5696 38.4507 68.3897 38.4493C67.7639 38.4497 67.7639 38.4497 67.2187 38.7252ZM70.875 41.9794C70.8645 44.9604 70.856 47.9414 70.851 50.9224C70.8486 52.3065 70.8454 53.6906 70.8401 55.0748C70.8355 56.2813 70.8325 57.4879 70.8315 58.6944C70.8309 59.3332 70.8295 59.9719 70.8261 60.6106C70.823 61.2122 70.822 61.8137 70.8227 62.4153C70.8226 62.6357 70.8216 62.8562 70.8199 63.0766C70.7756 64.6169 70.7756 64.6169 71.3373 66.0205C71.4136 66.1421 71.4899 66.2637 71.5685 66.389C72.0943 66.9647 72.8799 67.3327 73.6386 67.4671C74.5735 67.5039 75.31 67.2011 76.0473 66.6418C76.808 65.9359 77.0596 65.073 77.1115 64.062C77.1131 63.9836 77.1147 63.9052 77.1164 63.8245C76.9953 63.8202 76.8742 63.8158 76.7494 63.8114C76.59 63.8038 76.4306 63.7961 76.2712 63.7884C76.1516 63.7844 76.1516 63.7844 76.0295 63.7805C75.6898 63.7624 75.4404 63.7491 75.1569 63.5518C74.9616 63.2456 74.9855 63.0218 75.0359 62.6687C75.3033 62.3045 75.4472 62.2153 75.8974 62.1359C76.3037 62.1208 76.7101 62.1058 77.1164 62.0907C77.1164 61.5186 77.1164 60.9465 77.1164 60.357C76.9229 60.3527 76.7293 60.3484 76.5299 60.3439C76.2751 60.3363 76.0203 60.3286 75.7656 60.3209C75.5744 60.317 75.5744 60.317 75.3793 60.313C75.256 60.3089 75.1327 60.3048 75.0057 60.3006C74.8359 60.296 74.8359 60.296 74.6627 60.2914C74.2913 60.2334 74.0666 60.1155 73.7645 59.8947C73.6706 59.5631 73.7256 59.3207 73.7645 58.97C74.0785 58.656 74.2618 58.7033 74.7009 58.691C74.841 58.6865 74.981 58.6821 75.1253 58.6775C75.3457 58.6721 75.3457 58.6721 75.5705 58.6666C75.7922 58.6599 75.7922 58.6599 76.0184 58.6531C76.3844 58.6421 76.7504 58.6326 77.1164 58.6233C77.1164 58.013 77.1164 57.4027 77.1164 56.774C76.859 56.762 76.6015 56.7501 76.3362 56.7378C75.3954 56.6943 75.3954 56.6943 75.0359 56.3116C74.9517 55.6375 74.9517 55.6375 75.1569 55.3089C75.5023 55.0747 75.8672 55.0897 76.2712 55.0763C76.5501 55.0644 76.8291 55.0525 77.1164 55.0402C77.1164 54.43 77.1164 53.8197 77.1164 53.1909C76.7971 53.1824 76.7971 53.1824 76.4712 53.1738C76.1927 53.1651 75.9141 53.1563 75.6355 53.1476C75.4951 53.144 75.3547 53.1404 75.21 53.1367C75.0755 53.1323 74.9411 53.1278 74.8025 53.1232C74.6164 53.1177 74.6164 53.1177 74.4265 53.1122C74.1113 53.0753 74.1113 53.0753 73.7645 52.8442C73.7307 52.5688 73.7307 52.5688 73.7429 52.2518C73.746 52.1466 73.7491 52.0414 73.7523 51.9331C73.7564 51.8523 73.7604 51.7715 73.7645 51.6883C74.1471 51.5759 74.5062 51.5504 74.9041 51.5362C75.033 51.5313 75.1619 51.5265 75.2946 51.5215C75.4956 51.5147 75.4956 51.5147 75.7005 51.5077C75.8363 51.5028 75.972 51.4978 76.1119 51.4926C76.4467 51.4804 76.7816 51.4687 77.1164 51.4572C77.1164 50.885 77.1164 50.3129 77.1164 49.7234C76.878 49.7091 76.6396 49.6948 76.394 49.6801C75.5317 49.6284 75.5317 49.6284 75.1515 49.3767C74.9898 49.0532 75.0067 48.8098 75.0359 48.452C75.1556 48.2615 75.1556 48.2615 75.3827 48.1053C75.6885 48.0615 75.9649 48.0359 76.2712 48.0258C76.6896 48.008 76.6896 48.008 77.1164 47.9897C77.1164 47.3794 77.1164 46.7692 77.1164 46.1404C76.9035 46.1361 76.6906 46.1318 76.4712 46.1273C76.1927 46.1197 75.9141 46.112 75.6355 46.1043C75.4951 46.1017 75.3547 46.0991 75.21 46.0964C75.0083 46.0902 75.0083 46.0902 74.8025 46.084C74.6784 46.0809 74.5544 46.0779 74.4265 46.0748C74.1113 46.0248 74.1113 46.0248 73.8974 45.873C73.6734 45.5443 73.7235 45.2524 73.7645 44.869C73.8974 44.674 73.8974 44.674 74.1113 44.5222C74.4265 44.4723 74.4265 44.4723 74.8025 44.4631C74.937 44.459 75.0715 44.4549 75.21 44.4507C75.3504 44.4481 75.4908 44.4455 75.6355 44.4428C75.8482 44.4369 75.8482 44.4369 76.0651 44.4308C76.4155 44.4213 76.766 44.4138 77.1164 44.4067C77.1164 43.6057 77.1164 42.8047 77.1164 41.9794C75.0567 41.9794 72.9971 41.9794 70.875 41.9794ZM73.4178 69.1413C73.4178 69.5608 73.4178 69.9804 73.4178 70.4127C73.7611 70.4127 74.1044 70.4127 74.458 70.4127C74.458 69.9931 74.458 69.5735 74.458 69.1413C74.1148 69.1413 73.7715 69.1413 73.4178 69.1413Z" fill="white"/>
<path d="M58.6233 26.7226C59.1305 27.101 59.5733 27.5378 60.0103 27.994C60.0812 28.0667 60.1521 28.1394 60.2252 28.2143C61.8335 29.9718 62.188 32.2029 62.1105 34.4986C61.9871 36.4705 60.9308 38.2895 59.5081 39.6171C57.5925 41.2823 55.3137 41.7781 52.8442 41.6327C50.7694 41.4069 48.8873 40.1656 47.5468 38.614C46.0903 36.6772 45.6135 34.3979 45.9455 32.0099C46.2169 30.5416 46.8916 29.2238 47.8742 28.1096C47.95 28.0228 48.0258 27.9361 48.104 27.8468C50.8013 24.9572 55.3632 24.6379 58.6233 26.7226ZM50.0702 28.4563C49.9956 28.5096 49.9209 28.563 49.844 28.6179C48.6542 29.5472 47.8622 31.0156 47.643 32.5017C47.5225 34.5079 47.858 36.1938 49.1749 37.7869C50.316 38.9994 51.8125 39.8277 53.4916 39.9224C55.4186 39.9602 57.0577 39.454 58.4788 38.0898C59.7975 36.7139 60.4067 35.199 60.3993 33.3035C60.3643 31.7314 59.7183 30.1854 58.6427 29.0315C57.0052 27.5386 55.2948 27.0846 53.1292 27.1647C51.9565 27.2478 51.0022 27.775 50.0702 28.4563Z" fill="white"/>
<path d="M37.7918 62.994C38.0336 62.9937 38.2752 62.9916 38.517 62.9894C38.6715 62.9891 38.8261 62.9889 38.9806 62.9887C39.1907 62.988 39.1907 62.988 39.405 62.9873C39.7769 63.0149 40.0301 63.0793 40.3613 63.2466C40.7024 63.6591 40.6179 64.2133 40.6069 64.7202C40.6059 64.8119 40.6048 64.9035 40.6038 64.9979C40.601 65.2232 40.5969 65.4485 40.5925 65.6738C40.7373 65.6684 40.8821 65.663 41.0313 65.6575C41.2222 65.6532 41.413 65.649 41.6038 65.6449C41.7469 65.6391 41.7469 65.6391 41.8928 65.6331C42.0313 65.6309 42.0313 65.6309 42.1727 65.6286C42.2574 65.6262 42.3422 65.6238 42.4295 65.6213C42.794 65.6999 42.9185 65.8347 43.1353 66.1361C43.1827 66.447 43.2029 66.7099 43.2008 67.0206C43.2015 67.1058 43.2022 67.191 43.2029 67.2788C43.2037 67.4586 43.2034 67.6384 43.2019 67.8182C43.2003 68.0926 43.2042 68.3665 43.2087 68.6408C43.2088 68.8159 43.2085 68.991 43.208 69.1661C43.2095 69.2476 43.211 69.3291 43.2126 69.4131C43.2043 69.8548 43.1445 70.0539 42.8722 70.4076C42.559 70.6426 42.4509 70.7147 42.0711 70.7002C41.9843 70.6984 41.8975 70.6965 41.8081 70.6946C41.7192 70.6898 41.6304 70.6849 41.5388 70.6799C41.4477 70.6773 41.3566 70.6747 41.2627 70.672C41.0392 70.6653 40.8158 70.6549 40.5925 70.6438C40.5992 70.7789 40.6059 70.9141 40.6128 71.0533C40.6182 71.2323 40.6235 71.4112 40.6286 71.5901C40.6334 71.679 40.6383 71.7679 40.6433 71.8595C40.6451 71.9462 40.647 72.033 40.6489 72.1225C40.6535 72.2414 40.6535 72.2414 40.6581 72.3627C40.5503 72.767 40.3417 72.9349 40.0146 73.1866C39.6901 73.2417 39.4376 73.2628 39.1147 73.2552C39.0294 73.2553 38.9441 73.2553 38.8562 73.2553C38.6766 73.2546 38.497 73.2526 38.3174 73.2493C38.0429 73.2444 37.7687 73.2445 37.4941 73.2453C37.3192 73.2441 37.1442 73.2426 36.9692 73.2408C36.8875 73.2408 36.8057 73.2408 36.7215 73.2407C36.3721 73.2324 36.1144 73.2017 35.8011 73.042C35.5751 72.7863 35.5682 72.6635 35.5773 72.3256C35.5795 72.1787 35.5795 72.1787 35.5818 72.0288C35.5857 71.9269 35.5896 71.8251 35.5935 71.7202C35.5956 71.617 35.5977 71.5138 35.5999 71.4075C35.6053 71.1528 35.6129 70.8984 35.6224 70.6438C35.479 70.6505 35.3355 70.6572 35.1877 70.6641C34.9979 70.6696 34.8081 70.6748 34.6183 70.6799C34.5239 70.6848 34.4295 70.6896 34.3323 70.6946C34.1943 70.6974 34.1943 70.6974 34.0535 70.7002C33.9273 70.7048 33.9273 70.7048 33.7986 70.7094C33.3875 70.6043 33.2194 70.3977 32.9641 70.0659C32.9075 69.7507 32.8852 69.5092 32.8914 69.1954C32.8911 69.113 32.8908 69.0305 32.8905 68.9455C32.8906 68.7718 32.8922 68.5981 32.8951 68.4244C32.899 68.1595 32.8974 67.895 32.8952 67.6301C32.896 67.4608 32.8971 67.2915 32.8986 67.1222C32.898 67.0435 32.8974 66.9649 32.8968 66.8839C32.9066 66.4877 32.9624 66.2545 33.1665 65.9119C33.4609 65.6422 33.5608 65.6041 33.9519 65.6173C34.0495 65.6192 34.1471 65.6211 34.2476 65.623C34.3485 65.6278 34.4494 65.6327 34.5533 65.6377C34.7073 65.6416 34.7073 65.6416 34.8644 65.6456C35.1173 65.6524 35.3698 65.6618 35.6224 65.6738C35.6206 65.6091 35.6188 65.5444 35.6169 65.4777C35.6097 65.1843 35.6052 64.8909 35.6008 64.5974C35.5979 64.4956 35.595 64.3937 35.592 64.2888C35.5908 64.1909 35.5897 64.0929 35.5886 63.992C35.5868 63.9018 35.5849 63.8116 35.5831 63.7187C35.633 63.4132 35.7265 63.3177 35.9692 63.131C36.5552 62.9356 37.1785 62.9939 37.7918 62.994ZM37.3562 64.7491C37.3457 64.9393 37.3457 64.9393 37.335 65.1333C37.3252 65.3014 37.3154 65.4696 37.3056 65.6377C37.3011 65.721 37.2965 65.8044 37.2918 65.8903C37.2658 66.3288 37.2258 66.7471 37.125 67.1763C36.8092 67.2634 36.5146 67.3112 36.1877 67.3285C36.1006 67.3333 36.0134 67.3382 35.9236 67.3432C35.7888 67.35 35.7888 67.35 35.6513 67.3569C35.5597 67.3619 35.4681 67.3669 35.3737 67.3721C35.1484 67.3843 34.9231 67.3959 34.6978 67.4075C34.6978 67.9034 34.6978 68.3992 34.6978 68.9101C34.917 68.9186 34.917 68.9186 35.1407 68.9272C35.3326 68.9359 35.5245 68.9446 35.7164 68.9534C35.8608 68.9588 35.8608 68.9588 36.0082 68.9643C36.101 68.9687 36.1937 68.9732 36.2893 68.9778C36.3746 68.9814 36.46 68.9851 36.5479 68.9888C36.7783 69.0257 36.7783 69.0257 37.125 69.2568C37.2943 69.6827 37.2795 70.1614 37.3056 70.6149C37.3106 70.6955 37.3156 70.7761 37.3207 70.8592C37.3329 71.0571 37.3446 71.255 37.3562 71.4529C37.852 71.4529 38.3479 71.4529 38.8587 71.4529C38.8631 71.3067 38.8674 71.1606 38.8718 71.01C38.8794 70.8181 38.8871 70.6262 38.8949 70.4343C38.8975 70.338 38.9001 70.2417 38.9028 70.1424C38.9069 70.0497 38.911 69.9569 38.9152 69.8614C38.9182 69.776 38.9212 69.6907 38.9244 69.6028C38.9885 69.307 39.0779 69.2036 39.3211 69.0257C39.5514 68.9757 39.5514 68.9757 39.81 68.9665C39.9028 68.9624 39.9955 68.9583 40.0911 68.9541C40.1874 68.9515 40.2837 68.9489 40.383 68.9462C40.4806 68.9423 40.5783 68.9383 40.6789 68.9342C40.9198 68.9247 41.1607 68.9172 41.4016 68.9101C41.4016 68.4142 41.4016 67.9184 41.4016 67.4075C41.1968 67.401 41.1968 67.401 40.988 67.3944C40.808 67.3868 40.628 67.3791 40.448 67.3714C40.3582 67.3688 40.2683 67.3662 40.1757 67.3635C39.8058 67.3461 39.4958 67.3141 39.1477 67.1836C38.8519 66.7769 38.8955 66.3151 38.8876 65.8255C38.8842 65.7223 38.8808 65.6191 38.8773 65.5128C38.8691 65.2583 38.8637 65.0037 38.8587 64.7491C38.3629 64.7491 37.867 64.7491 37.3562 64.7491Z" fill="white"/>
<path d="M58.6233 30.6524C58.8978 30.833 58.8978 30.833 59.0856 31.1147C59.1506 31.512 59.1506 31.512 59.0856 31.9238C58.6881 32.3862 58.2319 32.698 57.7131 33.0074C56.8996 33.5041 56.0981 34.0173 55.3003 34.5388C55.1858 34.6134 55.0714 34.688 54.9534 34.7648C54.4811 35.0732 54.0096 35.382 53.5463 35.7037C53.3668 35.8279 53.3668 35.8279 53.1837 35.9547C53.087 36.0235 52.9903 36.0924 52.8907 36.1633C52.553 36.3489 52.305 36.4164 51.9195 36.4315C51.2913 36.1997 50.9362 35.612 50.547 35.0951C50.4757 35.0013 50.4044 34.9075 50.3309 34.8109C50.1905 34.6257 50.0506 34.4401 49.9113 34.254C49.7557 34.0471 49.5978 33.8424 49.4381 33.6386C49.1155 33.2115 48.9305 32.9315 48.8277 32.4006C48.9144 32.0394 48.9144 32.0394 49.1528 31.7504C49.6059 31.519 49.8132 31.5589 50.3014 31.6926C50.5618 31.9133 50.7484 32.1731 50.9443 32.4511C50.9986 32.5242 51.0529 32.5973 51.1088 32.6726C51.2162 32.8177 51.3227 32.9635 51.4282 33.11C51.6141 33.3681 51.8065 33.6211 51.999 33.8742C52.0872 33.9934 52.1754 34.1126 52.2663 34.2354C53.1013 33.7658 53.906 33.2669 54.7 32.7318C55.2767 32.3432 55.8578 31.9619 56.4417 31.5843C56.5238 31.531 56.6059 31.4778 56.6905 31.423C56.9105 31.2809 57.131 31.1398 57.3519 30.9991C57.5121 30.8968 57.5121 30.8968 57.6756 30.7923C58.0184 30.6036 58.2381 30.595 58.6233 30.6524Z" fill="white"/>
</svg>
