<?xml version="1.0" encoding="UTF-8"?>
<svg version="1.1" xmlns="http://www.w3.org/2000/svg" width="256" height="256">
<path d="M0 0 C3.42004375 0.05217576 6.84028882 0.07419837 10.26062012 0.09918213 C16.91020958 0.15360446 23.55893843 0.23672185 30.20788574 0.34332275 C30.32540221 7.67309932 30.4134008 15.00266252 30.4669466 22.33320141 C30.49268784 25.73967189 30.52740373 29.14548344 30.58508301 32.55157471 C31.11126434 66.13432452 24.97144457 93.54309861 1.20788574 118.34332275 C0.46022949 119.16574463 -0.28742676 119.9881665 -1.05773926 120.83551025 C-17.87512009 138.71093822 -42.5860449 149.65103843 -67.08605957 150.74346924 C-73.59508215 150.88903322 -80.09622062 150.78368429 -86.60461426 150.65582275 C-88.86956305 150.63065846 -91.13453939 150.60785993 -93.39953613 150.58746338 C-98.86434626 150.5332295 -104.32809425 150.45027399 -109.79211426 150.34332275 C-109.24922005 149.71525978 -109.24922005 149.71525978 -108.69535828 149.07450867 C-106.03123037 145.98099595 -103.39558902 142.87122872 -100.82067871 139.70294189 C-78.53235305 112.52787103 -78.53235305 112.52787103 -65.43830872 110.52742004 C-56.11422166 109.71591736 -46.98700819 110.81722198 -37.79211426 112.34332275 C-37.79211426 107.72332275 -37.79211426 103.10332275 -37.79211426 98.34332275 C-44.39211426 98.34332275 -50.99211426 98.34332275 -57.79211426 98.34332275 C-55.81211426 96.03332275 -53.83211426 93.72332275 -51.79211426 91.34332275 C-51.15862061 90.4745752 -50.52512695 89.60582764 -49.87243652 88.71075439 C-46.68446185 84.74890431 -43.9136025 82.25106855 -38.79162598 81.62799072 C-34.09352939 81.34914419 -29.4256467 81.55576423 -24.72961426 81.78082275 C-23.08454202 81.82603753 -21.43934982 81.86708984 -19.79406738 81.90386963 C-15.7904202 82.00235479 -11.79260681 82.15721634 -7.79211426 82.34332275 C-7.79211426 77.72332275 -7.79211426 73.10332275 -7.79211426 68.34332275 C-14.39211426 68.34332275 -20.99211426 68.34332275 -27.79211426 68.34332275 C-24.04025968 63.96615908 -20.45051177 59.88020028 -16.39367676 55.847229 C-15.91385345 55.36882065 -15.43403015 54.89041229 -14.93966675 54.39750671 C-13.43451968 52.89787396 -11.92590211 51.40179148 -10.41711426 49.90582275 C-9.38432831 48.87806292 -8.35177435 47.8500699 -7.31945801 46.82183838 C-4.81301139 44.32630678 -2.30344346 41.83394194 0.20788574 39.34332275 C-0.72485535 38.21437399 -1.66351548 37.09031399 -2.60461426 35.96832275 C-3.12668457 35.34183838 -3.64875488 34.715354 -4.18664551 34.06988525 C-5.87437165 32.12121796 -5.87437165 32.12121796 -8.79211426 30.34332275 C-9.63508057 31.19152588 -10.47804688 32.039729 -11.34655762 32.91363525 C-14.46188332 36.04700213 -17.58046922 39.17710648 -20.70007324 42.30621338 C-22.05220903 43.66339142 -23.40344779 45.02146375 -24.75378418 46.38043213 C-26.69001317 48.32873148 -28.62939971 50.27383744 -30.56945801 52.21832275 C-31.17676254 52.83078857 -31.78406708 53.44325439 -32.40977478 54.07427979 C-33.85169833 55.51639765 -35.31927985 56.93278872 -36.79211426 58.34332275 C-37.12211426 58.34332275 -37.45211426 58.34332275 -37.79211426 58.34332275 C-37.79211426 51.74332275 -37.79211426 45.14332275 -37.79211426 38.34332275 C-42.41211426 38.34332275 -47.03211426 38.34332275 -51.79211426 38.34332275 C-51.71356201 39.32502441 -51.63500977 40.30672607 -51.55407715 41.31817627 C-49.36883269 71.15525649 -49.36883269 71.15525649 -55.09680176 79.00738525 C-58.59427924 82.76635638 -62.41073046 85.68410138 -66.79211426 88.34332275 C-67.12211426 88.34332275 -67.45211426 88.34332275 -67.79211426 88.34332275 C-67.79211426 81.74332275 -67.79211426 75.14332275 -67.79211426 68.34332275 C-72.41211426 68.34332275 -77.03211426 68.34332275 -81.79211426 68.34332275 C-81.36285645 70.44062744 -80.93359863 72.53793213 -80.49133301 74.6987915 C-78.87600842 85.12493831 -77.6471899 96.63272933 -83.42224121 105.98248291 C-93.0842268 118.88018204 -106.0176661 130.54924256 -118.79211426 140.34332275 C-119.12211426 140.34332275 -119.45211426 140.34332275 -119.79211426 140.34332275 C-119.92117585 133.7497096 -120.00738729 127.15643296 -120.06677246 120.56182861 C-120.09158398 118.32863196 -120.12544471 116.09551349 -120.16931152 113.86260986 C-120.77585721 82.14383811 -113.06958476 55.59262922 -90.79211426 32.34332275 C-90.04445801 31.52090088 -89.29680176 30.698479 -88.52648926 29.85113525 C-64.75711358 4.58633527 -33.23901181 -0.56287458 0 0 Z " fill="#FFFFFF" transform="translate(172.7921142578125,52.65667724609375)"/>
<path d="M0 0 C0 19.47 0 38.94 0 59 C-25.08 59 -50.16 59 -76 59 C-76 46.46 -76 33.92 -76 21 C-70.8953125 20.62875 -70.8953125 20.62875 -65.6875 20.25 C-43.47191615 18.40475736 -24.31948247 13.1456985 -5.1328125 1.7578125 C-2 0 -2 0 0 0 Z " fill="#FFFFFF" transform="translate(166,197)"/>
<path d="M0 0 C12.54 0 25.08 0 38 0 C38 25.08 38 50.16 38 76 C18.53 76 -0.94 76 -21 76 C-19.55020862 72.37552154 -18.01546061 68.99202632 -16.23339844 65.53393555 C-5.20798463 44.0930573 -1.73710223 23.88515568 0 0 Z " fill="#FFFFFF" transform="translate(218,90)"/>
<path d="M0 0 C19.47 0 38.94 0 59 0 C57.55020862 3.62447846 56.01546061 7.00797368 54.23339844 10.46606445 C43.20798463 31.9069427 39.73710223 52.11484432 38 76 C25.46 76 12.92 76 0 76 C0 50.92 0 25.84 0 0 Z " fill="#FFFFFF" transform="translate(0,90)"/>
<path d="M0 0 C25.08 0 50.16 0 76 0 C76 12.54 76 25.08 76 38 C70.8953125 38.37125 70.8953125 38.37125 65.6875 38.75 C43.47191615 40.59524264 24.31948247 45.8543015 5.1328125 57.2421875 C2 59 2 59 0 59 C0 39.53 0 20.06 0 0 Z " fill="#FFFFFF" transform="translate(90,0)"/>
</svg>
